<svg width="40" height="40" viewBox="0 0 40 40" fill="none" xmlns="http://www.w3.org/2000/svg">
<circle cx="20" cy="20" r="20" fill="#FF9060"/>
<mask id="mask0_0_203" style="mask-type:luminance" maskUnits="userSpaceOnUse" x="0" y="0" width="40" height="40">
<circle cx="20" cy="20" r="20" fill="white"/>
</mask>
<g mask="url(#mask0_0_203)">
<path d="M12.4069 31.1545C12.8272 29.9777 13.4156 28.969 14.2562 28.0444C16.5257 25.4386 20.0562 23.5052 23.5026 23.5893C23.1664 26.6994 22.7461 29.8937 22.2417 33.0038C21.5693 37.0387 21.0649 40.9894 19.0475 44.604C16.1055 43.175 12.575 42.9228 9.8851 40.9894C10.4735 38.2155 11.3982 33.7604 12.4069 31.1545Z" fill="#3E64E9"/>
<path d="M16.2736 27.54C18.4591 24.8501 21.9055 22.7487 25.3519 23.3371C29.2186 23.9255 32.581 26.6994 34.7665 29.9777C36.952 33.256 38.2129 37.1227 39.2216 40.9053C40.3144 44.9402 41.4071 48.8069 41.8274 52.9258C42.2477 57.1287 42.4158 61.3316 42.584 65.5346C42.584 65.8708 42.584 66.207 42.4158 66.5433C42.0796 67.1317 41.239 67.2998 40.5665 67.2998C37.4564 67.4679 34.4303 67.3839 31.236 67.3839C28.9664 67.2998 26.6128 67.1317 24.3432 66.8795C22.8301 66.7114 20.0562 66.8795 19.6359 65.0302C18.375 59.5664 17.1982 54.1866 15.9373 48.7228C15.0967 44.9402 14.2561 41.2416 13.8359 37.4589C13.5837 35.1053 13.4996 32.4154 14.5924 30.1458C15.0127 29.2212 15.6011 28.2965 16.2736 27.54Z" fill="#424BFF"/>
<path d="M20.8968 30.5661C23.1664 30.1458 24.6794 27.9603 24.091 25.6907L22.0736 16.3602L14.6764 17.7051L16.1054 27.1197C16.5257 29.3893 18.6272 30.9864 20.8968 30.5661Z" fill="#FBE1D9"/>
<path d="M17.7025 22.7487C18.5431 22.9168 19.4678 22.6646 20.2243 21.9921C20.9808 21.3197 21.4852 20.4791 22.0736 19.7225C23.3345 17.7051 24.6794 15.6037 24.5954 13.25C24.5113 11.5688 23.3345 10.1398 21.9055 9.29926C20.5605 8.45867 18.4591 7.44996 17.0301 8.37461C16.3576 8.7949 15.8533 9.46738 15.433 10.1398C13.9199 12.7457 13.3315 15.8558 13.7518 18.7979C14.088 20.8153 15.6011 22.4124 17.7025 22.7487Z" fill="#FFE0D7"/>
<path fill-rule="evenodd" clip-rule="evenodd" d="M20.7287 7.7862C22.662 8.12243 24.7635 9.13114 25.436 11.0645C26.0244 12.6616 26.0244 14.4268 25.3519 15.7718C25.0997 16.3602 24.7635 17.0327 24.4273 17.6211C24.304 17.8368 24.1807 18.0498 24.0584 18.2609C23.5138 19.2014 22.9898 20.1064 22.578 21.0675C22.1577 22.0762 21.5693 23.0008 20.7287 23.5892C19.2997 24.598 16.946 24.682 15.3489 24.0095C13.2474 23.0849 12.659 20.8994 12.659 18.882C12.659 16.6964 14.6764 16.2761 16.5257 16.7805C17.8707 17.2008 18.7953 18.0414 19.5519 19.1341C19.5939 19.1341 19.6149 19.1131 19.6359 19.0921C19.6569 19.0711 19.6779 19.0501 19.72 19.0501C20.7287 18.2095 21.4011 17.1167 21.9055 16.024C21.9203 15.9883 21.9352 15.9528 21.95 15.9174C22.3543 14.9499 22.7283 14.055 22.2417 13.0819C21.9055 12.2413 21.0649 11.821 20.2243 11.5688C20.0646 11.5184 19.9083 11.468 19.7545 11.4184C18.3708 10.972 17.1982 10.5938 15.6851 10.8964C15.1808 11.0645 14.6764 11.1485 14.2561 11.0645C13.6677 10.9804 13.2474 10.4761 13.1634 9.88766C12.9953 9.38331 13.1634 8.7949 13.4996 8.29055C14.004 7.53402 14.8446 7.02967 15.7692 7.02967C16.3823 6.96155 16.9402 7.11424 17.4876 7.26406C17.6156 7.29912 17.7432 7.33402 17.8707 7.3659C18.4218 7.5162 19.0027 7.57692 19.5779 7.63704C19.9678 7.67779 20.3551 7.71827 20.7287 7.7862ZM13.9199 17.8732C13.0793 18.7138 15.7692 20.1428 16.2736 20.2269C17.1141 20.395 18.0388 20.1428 18.8794 19.6385C18.291 18.882 17.6185 18.1254 16.6939 17.7892C15.8533 17.453 14.5924 17.2008 13.9199 17.8732Z" fill="#3D2A21"/>
<path d="M20.6447 16.7805C20.4766 17.3689 20.8969 18.0414 21.4853 18.2095C22.0737 18.3776 22.7461 17.9573 22.9143 17.3689C23.0824 16.7805 22.6621 16.108 22.0737 15.9399C21.4012 15.7718 20.7287 16.1921 20.6447 16.7805Z" fill="#FBE1D9"/>
<path d="M17.5345 18.7979C17.5345 18.7979 16.9461 19.3863 16.0214 19.1341C15.0127 18.882 14.8446 18.2095 14.8446 18.2095" stroke="#110809" stroke-width="0.5"/>
</g>
</svg>
