<svg width="40" height="40" viewBox="0 0 40 40" fill="none" xmlns="http://www.w3.org/2000/svg">
<circle cx="20" cy="20" r="20" fill="#FF9060"/>
<mask id="mask0_0_174" style="mask-type:luminance" maskUnits="userSpaceOnUse" x="0" y="0" width="40" height="40">
<circle cx="20" cy="20" r="20" fill="white"/>
</mask>
<g mask="url(#mask0_0_174)">
<path fill-rule="evenodd" clip-rule="evenodd" d="M8.88325 39.0723C8.88325 39.0723 17.232 44.0815 20.9055 44.0815C23.911 44.0815 30.924 39.0723 30.924 39.0723C30.924 39.0723 28.2559 28.5221 20.5304 30.1553C20.5304 30.1553 12.8907 29.0537 8.88325 39.0723Z" fill="#78ECF1"/>
<path fill-rule="evenodd" clip-rule="evenodd" d="M23.2254 21.9963L16.4998 23.1377L16.438 31.3534C16.438 31.3534 16.8241 33.4815 20.3015 33.5411C23.5836 33.5973 23.8021 31.2554 23.8021 31.2554L23.2254 21.9963Z" fill="#FFD3C5"/>
<path fill-rule="evenodd" clip-rule="evenodd" d="M16.4645 27.8064L16.4997 23.1377L16.4645 27.8064ZM23.3927 24.685L23.2253 21.9963L23.3927 24.685Z" fill="#E5B4AD"/>
<path opacity="0.312988" fill-rule="evenodd" clip-rule="evenodd" d="M16.8093 27.8169C16.5923 27.8169 16.4682 27.8068 16.4645 27.8064L16.4997 23.1377L23.2253 21.9963L23.3927 24.685C21.1969 27.5705 17.8784 27.8169 16.8093 27.8169Z" fill="#E49789"/>
<path fill-rule="evenodd" clip-rule="evenodd" d="M22.1348 6.4769C18.5695 5.1547 14.5755 6.74178 12.6898 10.0437C10.5752 13.7457 9.8851 18.4324 9.8851 22.9283H29.3218C29.3218 22.9283 28.9408 16.9976 28.0731 14.4927C27.4962 12.8284 26.7265 8.18005 22.1348 6.4769Z" fill="#172133"/>
<path fill-rule="evenodd" clip-rule="evenodd" d="M27.4158 18.3078C27.4158 18.9614 26.6209 19.8866 25.7087 19.6207C25.0812 19.4379 24.2778 18.9614 24.2778 18.3078C24.2778 17.6544 25.1936 16.9976 25.8468 16.9976C26.9014 16.9976 27.4158 17.6544 27.4158 18.3078Z" fill="#FFD3C5"/>
<path fill-rule="evenodd" clip-rule="evenodd" d="M26.2326 18.7926C26.2336 18.6499 26.257 18.5094 26.3039 18.3745C26.3536 18.2401 26.4056 18.1035 26.5549 17.9911C26.5889 17.9647 26.65 17.9444 26.7032 17.9444C26.7316 17.9471 26.7631 17.9491 26.7878 17.9584C26.8105 17.9701 26.8335 17.9823 26.8542 17.9967C26.8943 18.0261 26.9146 18.061 26.9434 18.0933C26.9808 18.148 26.9803 18.1944 26.9828 18.234C26.9837 18.3906 26.9358 18.5223 26.8755 18.6523C26.8594 18.5126 26.8511 18.3696 26.8264 18.2531C26.819 18.2257 26.8078 18.201 26.8027 18.2008L26.7457 18.1541C26.7096 18.1316 26.7025 18.1399 26.6649 18.1604C26.5889 18.2093 26.5143 18.331 26.4464 18.4402C26.3797 18.5548 26.3083 18.6724 26.2326 18.7926Z" fill="#EEA08E"/>
<path fill-rule="evenodd" clip-rule="evenodd" d="M11.8021 18.3078C11.8021 18.9614 12.597 19.8866 13.5092 19.6207C14.1369 19.4379 14.9401 18.9614 14.9401 18.3078C14.9401 17.6544 14.0247 16.9976 13.3711 16.9976C12.3165 16.9976 11.8021 17.6544 11.8021 18.3078Z" fill="#FFD3C5"/>
<path fill-rule="evenodd" clip-rule="evenodd" d="M12.9855 18.7926C12.9095 18.6724 12.8381 18.5548 12.7714 18.4402C12.7035 18.331 12.6292 18.2093 12.5529 18.1604C12.5153 18.1399 12.5082 18.1316 12.4721 18.1541L12.4151 18.2008C12.41 18.201 12.3988 18.2257 12.3914 18.2531C12.3668 18.3696 12.3584 18.5126 12.3423 18.6523C12.282 18.5223 12.2341 18.3906 12.235 18.234C12.2375 18.1944 12.237 18.148 12.2744 18.0933C12.3035 18.061 12.3237 18.0261 12.3636 17.9967C12.3846 17.9823 12.4073 17.9701 12.43 17.9584C12.4547 17.9491 12.4862 17.9471 12.5146 17.9444C12.5681 17.9444 12.6292 17.9647 12.6629 17.9911C12.8122 18.1035 12.8643 18.2401 12.9139 18.3745C12.9608 18.5094 12.9842 18.6499 12.9855 18.7926Z" fill="#EEA08E"/>
<path fill-rule="evenodd" clip-rule="evenodd" d="M25.8425 16.6059C25.959 21.1692 23.7992 25.5309 20.0474 25.6269C16.2958 25.7227 13.5864 21.8272 13.4696 17.2639C13.353 12.7008 15.8733 9.19753 19.6249 9.10174C23.3764 9.00571 25.7257 12.0425 25.8425 16.6059Z" fill="#FFD3C5"/>
<path fill-rule="evenodd" clip-rule="evenodd" d="M17.5547 16.8375C17.5486 17.0899 17.392 17.2913 17.2048 17.2866C17.0178 17.2823 16.871 17.0736 16.8771 16.8209C16.8832 16.5682 17.0398 16.3671 17.227 16.3718C17.4142 16.3764 17.5608 16.5849 17.5547 16.8375Z" fill="#172133"/>
<path fill-rule="evenodd" clip-rule="evenodd" d="M22.4357 16.8375C22.4296 17.0899 22.2727 17.2913 22.0858 17.2866C21.8986 17.2823 21.752 17.0736 21.7581 16.8209C21.7642 16.5682 21.9208 16.3671 22.108 16.3718C22.2952 16.3764 22.4418 16.5849 22.4357 16.8375Z" fill="#172133"/>
<path fill-rule="evenodd" clip-rule="evenodd" d="M18.2417 19.2275C18.4797 19.4993 18.7226 19.748 18.988 19.9425C19.2541 20.1334 19.5432 20.2619 19.8349 20.2521C20.1277 20.2551 20.4221 20.1226 20.7029 19.9467C20.9834 19.7661 21.2461 19.5359 21.5286 19.3077C21.3839 19.6403 21.1784 19.9472 20.902 20.2023C20.7642 20.3308 20.6051 20.44 20.4277 20.5285C20.2474 20.6101 20.0463 20.6621 19.8388 20.6673C19.6321 20.6663 19.4254 20.6187 19.2446 20.5312C19.0652 20.4403 18.9052 20.3247 18.7749 20.1852C18.512 19.9112 18.329 19.5811 18.2417 19.2275Z" fill="#D1746F"/>
<path fill-rule="evenodd" clip-rule="evenodd" d="M19.4477 18.3691C19.5423 18.2252 19.6564 18.1128 19.7781 18.0114C19.8985 17.908 20.0285 17.8201 20.1644 17.7419L20.1568 18.1099C20.039 18.0207 19.953 17.9146 19.8863 17.8044C19.8206 17.6932 19.7707 17.5813 19.7363 17.465C19.6647 17.2348 19.6351 16.9983 19.663 16.7601C19.7939 16.9587 19.9073 17.1508 20.0271 17.3272C20.0906 17.4122 20.1453 17.5005 20.2133 17.5706C20.278 17.6419 20.3435 17.705 20.4087 17.747L20.6792 17.9215L20.4009 18.115C20.2721 18.2047 20.137 18.2848 19.9921 18.3496C19.8487 18.416 19.6979 18.4715 19.5276 18.4955C19.4826 18.5018 19.4413 18.4705 19.4347 18.4258L19.4477 18.3691Z" fill="#D1746F"/>
<path fill-rule="evenodd" clip-rule="evenodd" d="M13.3711 16.9976C13.3711 16.9976 14.6579 15.5139 15.5566 12.423C16.4251 9.43677 17.9386 11.57 21.188 11.57C24.4374 11.57 24.2779 10.358 24.2779 10.358C24.2779 10.358 20.1901 5.72479 15.3428 9.64521C10.4956 13.5659 13.3711 16.9976 13.3711 16.9976Z" fill="#172133"/>
<path fill-rule="evenodd" clip-rule="evenodd" d="M23.5184 10.4938C23.5184 10.4938 23.1238 13.742 25.0261 14.5174C25.6308 14.7637 25.4613 14.5125 25.8469 16.9976C25.8469 16.9976 27.0222 11.4407 23.5184 10.4938Z" fill="#172133"/>
</g>
</svg>
