<svg width="40" height="40" viewBox="0 0 40 40" fill="none" xmlns="http://www.w3.org/2000/svg">
<circle cx="20" cy="20" r="20" fill="#FF9060"/>
<mask id="mask0_0_146" style="mask-type:luminance" maskUnits="userSpaceOnUse" x="0" y="0" width="40" height="40">
<circle cx="20" cy="20" r="20" fill="white"/>
</mask>
<g mask="url(#mask0_0_146)">
<path fill-rule="evenodd" clip-rule="evenodd" d="M10.9411 35.8861C7.64116 43.574 29.9492 45.9968 29.9492 39.7061C29.9492 33.4153 28.5834 28.7951 21.1641 30.3636C21.1641 30.3636 14.241 28.1981 10.9411 35.8861Z" fill="#E0FF66"/>
<path fill-rule="evenodd" clip-rule="evenodd" d="M23.7524 24.1122L17.2936 24.9046L17.234 30.6077C17.234 30.6077 17.6046 32.085 20.9444 32.1264C24.0964 32.1656 24.3062 30.5397 24.3062 30.5397L23.7524 24.1122Z" fill="#F5CDC0"/>
<path fill-rule="evenodd" clip-rule="evenodd" d="M23.9133 26.6941L23.7523 24.1122L23.9133 26.6941Z" fill="#E5B4AD"/>
<path opacity="0.140137" fill-rule="evenodd" clip-rule="evenodd" d="M17.5909 29.702C17.3795 29.702 17.2598 29.692 17.2598 29.692L17.2936 25.2084L23.7524 24.1122L23.9134 26.6941C21.8046 29.4655 18.6176 29.702 17.5909 29.702Z" fill="#E49789"/>
<path fill-rule="evenodd" clip-rule="evenodd" d="M13.8503 16.7927C13.8503 12.6619 16.8437 9.31291 20.5365 9.31291C24.2288 9.31291 27.2222 12.6619 27.2222 16.7927C27.2222 20.9238 24.2288 24.2725 20.5365 24.2725C16.8437 24.2725 13.8503 20.9238 13.8503 16.7927Z" fill="#7B0000"/>
<path fill-rule="evenodd" clip-rule="evenodd" d="M27.9884 20.5167C27.9884 21.1444 27.225 22.0328 26.349 21.7775C25.7461 21.602 24.9748 21.1444 24.9748 20.5167C24.9748 19.8892 25.8538 19.2584 26.4816 19.2584C27.4944 19.2584 27.9884 19.8892 27.9884 20.5167Z" fill="#F5CDC0"/>
<path fill-rule="evenodd" clip-rule="evenodd" d="M26.8519 20.9822C26.8531 20.8452 26.8756 20.7103 26.9204 20.5807C26.9681 20.4516 27.0183 20.3205 27.1617 20.2128C27.1941 20.1872 27.2527 20.1679 27.3041 20.1677C27.3313 20.1703 27.3616 20.1722 27.3853 20.1811C27.4069 20.1923 27.429 20.2041 27.4491 20.2179C27.4874 20.2461 27.5069 20.2796 27.5346 20.3108C27.5707 20.3632 27.5702 20.4078 27.5726 20.4458C27.5733 20.5962 27.5275 20.7227 27.4696 20.8475C27.4541 20.7133 27.4459 20.576 27.4224 20.4641C27.4151 20.4378 27.4045 20.4141 27.3996 20.4139L27.3449 20.369C27.31 20.3475 27.3034 20.3554 27.2673 20.3751C27.1941 20.4221 27.1227 20.5389 27.0575 20.6438C26.9934 20.7539 26.9249 20.8668 26.8519 20.9822Z" fill="#EEA08E"/>
<path fill-rule="evenodd" clip-rule="evenodd" d="M12.9933 20.5167C12.9933 21.1444 13.7566 22.0328 14.6329 21.7775C15.2355 21.602 16.0069 21.1444 16.0069 20.5167C16.0069 19.8892 15.1278 19.2584 14.5001 19.2584C13.4875 19.2584 12.9933 19.8892 12.9933 20.5167Z" fill="#F5CDC0"/>
<path fill-rule="evenodd" clip-rule="evenodd" d="M14.1298 20.9822C14.0568 20.8668 13.9883 20.7539 13.9242 20.6438C13.8592 20.5389 13.7876 20.4221 13.7146 20.3751C13.6783 20.3554 13.6717 20.3475 13.637 20.369L13.5821 20.4139C13.5774 20.4141 13.5666 20.4378 13.5595 20.4641C13.5358 20.576 13.5278 20.7133 13.5121 20.8475C13.4542 20.7227 13.4084 20.5962 13.4093 20.4458C13.4114 20.4078 13.411 20.3632 13.4471 20.3108C13.4748 20.2796 13.4943 20.2461 13.5325 20.2179C13.5527 20.2041 13.5748 20.1923 13.5966 20.1811C13.6203 20.1722 13.6503 20.1703 13.6776 20.1677C13.729 20.1679 13.7876 20.1872 13.82 20.2128C13.9634 20.3205 14.0136 20.4516 14.0612 20.5807C14.1061 20.7103 14.1286 20.8452 14.1298 20.9822Z" fill="#EEA08E"/>
<path fill-rule="evenodd" clip-rule="evenodd" d="M26.4774 18.8822C26.5893 23.2646 24.5148 27.4535 20.912 27.5457C17.3091 27.6377 14.7069 23.8966 14.5949 19.5142C14.4828 15.132 16.9031 11.7675 20.5062 11.6755C24.1091 11.5833 26.3652 14.4998 26.4774 18.8822Z" fill="#F5CDC0"/>
<path fill-rule="evenodd" clip-rule="evenodd" d="M27.8424 10.3893C27.8424 12.8073 25.8822 14.7675 23.4642 14.7675C21.0459 14.7675 19.0857 12.8073 19.0857 10.3893C19.0857 7.9713 21.0459 6.01112 23.4642 6.01112C25.8822 6.01112 27.8424 7.9713 27.8424 10.3893Z" fill="#7B0000"/>
<path fill-rule="evenodd" clip-rule="evenodd" d="M17.5436 10.2868C17.5436 10.2868 19.9374 17.8858 26.5785 18.5527C26.5785 18.5527 28.7102 10.1044 19.7459 10.1044L17.5436 10.2868Z" fill="#7B0000"/>
<path fill-rule="evenodd" clip-rule="evenodd" d="M14.3579 19.2584C14.3579 19.2584 14.4243 19.0064 14.3881 18.2399C14.23 14.8863 15.6978 11.7363 18.0687 10.1277L19.218 9.49449L18.5197 12.5753C18.5197 12.5753 19.7932 16.4103 14.3579 19.2584Z" fill="#7B0000"/>
<path fill-rule="evenodd" clip-rule="evenodd" d="M18.5181 19.1047C18.5122 19.3473 18.3618 19.5404 18.1818 19.536C18.0023 19.5317 17.8612 19.3313 17.8673 19.0887C17.873 18.846 18.0236 18.6532 18.2034 18.6574C18.3831 18.6618 18.5239 18.862 18.5181 19.1047Z" fill="#172133"/>
<path fill-rule="evenodd" clip-rule="evenodd" d="M23.2056 19.1047C23.1997 19.3473 23.0491 19.5404 22.8695 19.536C22.6898 19.5317 22.5487 19.3313 22.5548 19.0887C22.5605 18.846 22.7111 18.6532 22.8907 18.6574C23.0706 18.6618 23.2114 18.862 23.2056 19.1047Z" fill="#172133"/>
<path fill-rule="evenodd" clip-rule="evenodd" d="M19.1779 21.4C19.4063 21.6609 19.6395 21.8998 19.8946 22.0866C20.1499 22.2699 20.4275 22.3933 20.708 22.3839C20.9891 22.3867 21.2716 22.2595 21.5413 22.0906C21.8109 21.9172 22.0632 21.6963 22.3342 21.4769C22.1953 21.7963 21.9982 22.0911 21.7328 22.336C21.5999 22.4595 21.4476 22.5646 21.277 22.6493C21.1041 22.7277 20.9107 22.7777 20.7117 22.7826C20.513 22.7817 20.3144 22.7359 20.1408 22.6521C19.9688 22.5646 19.8148 22.4536 19.69 22.3199C19.4372 22.0566 19.2615 21.7395 19.1779 21.4Z" fill="#D1746F"/>
<path fill-rule="evenodd" clip-rule="evenodd" d="M20.3358 20.5756C20.4266 20.4376 20.5364 20.3294 20.6533 20.232C20.7688 20.133 20.8936 20.0483 21.0243 19.9734L21.017 20.3266C20.9039 20.2409 20.8211 20.1391 20.757 20.0333C20.6939 19.9265 20.646 19.819 20.6129 19.7073C20.5442 19.4862 20.516 19.2591 20.5425 19.0303C20.6686 19.2211 20.7772 19.4055 20.8924 19.5749C20.9534 19.6566 21.006 19.7413 21.071 19.8087C21.1334 19.8772 21.1963 19.9377 21.259 19.9781L21.5188 20.1457L21.2515 20.3315C21.1278 20.4179 20.998 20.4946 20.8591 20.5568C20.7211 20.6206 20.5763 20.6739 20.4128 20.6969C20.3696 20.703 20.3297 20.673 20.3236 20.63L20.3358 20.5756Z" fill="#D1746F"/>
</g>
</svg>
