<svg width="40" height="40" viewBox="0 0 40 40" fill="none" xmlns="http://www.w3.org/2000/svg">
<circle cx="20" cy="20" r="20" fill="#7A40F2"/>
<mask id="mask0_0_118" style="mask-type:luminance" maskUnits="userSpaceOnUse" x="0" y="0" width="40" height="40">
<circle cx="20" cy="20" r="20" fill="white"/>
</mask>
<g mask="url(#mask0_0_118)">
<path fill-rule="evenodd" clip-rule="evenodd" d="M13.8208 10.5372C12.7402 12.5856 10.2541 13.3402 8.07931 14.1375C5.90488 14.9346 3.51433 16.3678 3.3477 18.6779C3.24328 20.1306 4.08981 21.5344 3.94564 22.984C3.64818 25.9762 -0.258459 26.9823 -2.06958 29.3826C-3.37291 31.1102 -3.46366 33.5779 -2.56614 35.5471C-1.66863 37.5164 0.10243 39.0012 2.08717 39.8641C6.18351 41.644 11.1601 40.8321 14.8002 38.2442C18.4401 35.6567 20.7821 31.4802 21.6353 27.0962C22.4885 22.7124 21.9421 18.1386 20.6178 13.8732C20.1258 12.2888 19.432 10.6191 18.0024 9.77714C16.5731 8.93516 14.2703 9.51914 14.0098 11.1576L13.8208 10.5372Z" fill="#0A0F21"/>
<path fill-rule="evenodd" clip-rule="evenodd" d="M12.8781 14.6581C12.8781 8.8878 17.1653 4.21052 22.4539 4.21052C27.7425 4.21052 32.0294 8.8878 32.0294 14.6581C32.0294 20.428 27.7425 25.1053 22.4539 25.1053C17.1653 25.1053 12.8781 20.428 12.8781 14.6581Z" fill="#0A0F21"/>
<path fill-rule="evenodd" clip-rule="evenodd" d="M15.5257 12.7565C15.5257 12.7565 13.4648 11.1263 13.4912 10.7642L12.8781 11.0106L14.759 13.349L15.5257 12.7565Z" fill="#FF05DB"/>
<path fill-rule="evenodd" clip-rule="evenodd" d="M10.634 41.9848C10.634 41.9848 18.0036 45.7869 22.045 45.6941C26.2002 45.5987 35.224 41.4203 35.224 41.4203C35.224 41.4203 33.4571 32.2484 23.8607 34.2772C23.8607 34.2772 14.9025 32.0407 10.634 41.9848Z" fill="#57C6FF"/>
<path fill-rule="evenodd" clip-rule="evenodd" d="M27.7181 24.1425L19.3643 25.5603L19.2872 35.7654C19.2872 35.7654 19.7667 38.4087 24.0862 38.4828C28.1631 38.5526 28.4348 35.6436 28.4348 35.6436L27.7181 24.1425L15.1244 33.3982Z" fill="#FBDED4"/>
<path fill-rule="evenodd" clip-rule="evenodd" d="M19.3203 31.3594L19.3643 25.5603L19.3203 31.3594Z" fill="#0A0F21"/>
<path fill-rule="evenodd" clip-rule="evenodd" d="M19.7489 31.3725C19.4766 31.3725 19.3218 31.3597 19.3203 31.3594L19.3643 25.5603L27.7181 24.1425L27.9261 27.4822C25.1989 31.0665 21.0768 31.3725 19.7489 31.3725Z" fill="#F6D3C8"/>
<path fill-rule="evenodd" clip-rule="evenodd" d="M33.4993 19.4747C33.4993 20.2863 32.512 21.4354 31.3786 21.1052C30.5995 20.8782 29.6015 20.2863 29.6015 19.4747C29.6015 18.6627 30.7388 17.8469 31.5504 17.8469C32.8601 17.8469 33.4993 18.6627 33.4993 19.4747Z" fill="#FBDED4"/>
<path fill-rule="evenodd" clip-rule="evenodd" d="M32.0294 20.0766C32.031 19.8993 32.0601 19.7248 32.1181 19.5572C32.18 19.3903 32.2446 19.2209 32.4301 19.0813C32.472 19.0482 32.5479 19.023 32.6143 19.023C32.6495 19.0264 32.6887 19.0291 32.7191 19.0406C32.7473 19.0549 32.7758 19.0701 32.8019 19.0883C32.8514 19.1244 32.8766 19.1681 32.9124 19.2079C32.9591 19.2759 32.9585 19.3335 32.9613 19.3827C32.9625 19.5776 32.9033 19.7412 32.8283 19.9023C32.808 19.729 32.7977 19.5515 32.767 19.4064C32.7579 19.3727 32.7439 19.342 32.7379 19.3414L32.6672 19.2838C32.6222 19.2555 32.6134 19.2659 32.5664 19.2917C32.472 19.3521 32.3794 19.5032 32.2953 19.6392C32.2125 19.7812 32.1238 19.9272 32.0294 20.0766Z" fill="#EEA08E"/>
<path fill-rule="evenodd" clip-rule="evenodd" d="M14.1046 19.4747C14.1046 20.2863 15.0922 21.4354 16.2253 21.1052C17.0047 20.8782 18.0024 20.2863 18.0024 19.4747C18.0024 18.6627 16.8651 17.8469 16.0535 17.8469C14.7438 17.8469 14.1046 18.6627 14.1046 19.4747Z" fill="#FBDED4"/>
<path fill-rule="evenodd" clip-rule="evenodd" d="M15.5745 20.0766C15.4804 19.9272 15.3918 19.7812 15.3089 19.6392C15.2246 19.5032 15.132 19.3521 15.0373 19.2917C14.9908 19.2659 14.982 19.2555 14.9371 19.2838L14.8661 19.3414C14.86 19.342 14.8461 19.3727 14.837 19.4064C14.8063 19.5515 14.796 19.729 14.7759 19.9023C14.7007 19.7412 14.6415 19.5776 14.6427 19.3827C14.6457 19.3335 14.6451 19.2759 14.6916 19.2079C14.7274 19.1681 14.7526 19.1244 14.802 19.0883C14.8282 19.0701 14.8567 19.0549 14.8849 19.0406C14.9156 19.0291 14.9544 19.0264 14.9896 19.023C15.0561 19.023 15.132 19.0482 15.1742 19.0813C15.3596 19.2209 15.424 19.3903 15.4859 19.5572C15.5442 19.7248 15.573 19.8993 15.5745 20.0766Z" fill="#EEA08E"/>
<path fill-rule="evenodd" clip-rule="evenodd" d="M31.545 17.3603C31.6897 23.0286 29.0066 28.4465 24.3466 28.5658C19.6863 28.6848 16.3209 23.8463 16.1761 18.178C16.0313 12.5097 19.1615 8.15844 23.8215 8.03916C28.4818 7.91987 31.3999 11.6921 31.545 17.3603Z" fill="#FBDED4"/>
<path fill-rule="evenodd" clip-rule="evenodd" d="M21.1915 17.6481C21.1839 17.9619 20.989 18.2117 20.7568 18.2063C20.5243 18.2005 20.3419 17.9416 20.3495 17.6277C20.3574 17.3139 20.552 17.0641 20.7845 17.0696C21.017 17.0753 21.1991 17.3345 21.1915 17.6481Z" fill="#172133"/>
<path fill-rule="evenodd" clip-rule="evenodd" d="M27.2543 17.6481C27.2467 17.9619 27.0522 18.2117 26.8194 18.2063C26.5872 18.2005 26.4048 17.9416 26.4124 17.6277C26.4199 17.3139 26.6148 17.0641 26.8473 17.0696C27.0795 17.0753 27.2619 17.3345 27.2543 17.6481Z" fill="#172133"/>
<path fill-rule="evenodd" clip-rule="evenodd" d="M22.045 20.6168C22.3407 20.9544 22.6424 21.2636 22.972 21.5049C23.3025 21.742 23.6613 21.9016 24.024 21.8895C24.3876 21.8931 24.7531 21.7289 25.1021 21.5101C25.4506 21.2858 25.7769 21.0002 26.1274 20.7164C25.9477 21.1295 25.6928 21.511 25.3495 21.8279C25.178 21.9872 24.9807 22.1232 24.7601 22.2328C24.5364 22.3345 24.2863 22.3988 24.0289 22.4055C23.7718 22.404 23.515 22.3451 23.2904 22.2364C23.0679 22.1235 22.8688 21.9797 22.7073 21.8066C22.3804 21.4661 22.1534 21.0563 22.045 20.6168Z" fill="#292929"/>
<path fill-rule="evenodd" clip-rule="evenodd" d="M23.5426 19.5509C23.66 19.3721 23.8021 19.2322 23.9532 19.1062C24.1026 18.9781 24.264 18.8689 24.4334 18.7714L24.4237 19.2288C24.2771 19.1177 24.1703 18.986 24.0874 18.8494C24.006 18.7113 23.9438 18.5723 23.901 18.4278C23.8121 18.1419 23.7757 17.8478 23.81 17.5519C23.9727 17.7989 24.1135 18.0372 24.2625 18.2563C24.3414 18.3623 24.4094 18.4718 24.4935 18.5587C24.5742 18.6473 24.6556 18.7256 24.7366 18.7778L25.0726 18.9948L24.7269 19.2352C24.567 19.3466 24.3991 19.4459 24.2194 19.5263C24.041 19.6091 23.8537 19.6777 23.6421 19.7075C23.5863 19.7157 23.5347 19.6768 23.5268 19.621L23.5426 19.5509Z" fill="#D1746F"/>
<path fill-rule="evenodd" clip-rule="evenodd" d="M27.926 6.84419C26.2402 5.47318 23.1643 6.05443 23.1643 6.05443C20.3607 6.39346 17.8072 8.0161 16.5302 10.535C14.5655 14.4101 16.2383 18.4916 16.2383 18.4916C20.7383 16.8617 23.5617 11.876 24.7545 9.31335C25.2857 11.8878 26.9065 15.379 31.5504 17.8466C31.5504 17.8466 32.8698 10.8647 27.926 6.84419Z" fill="#0A0F21"/>
</g>
</svg>
