<svg width="15" height="15" viewBox="0 0 15 15" fill="none" xmlns="http://www.w3.org/2000/svg">
<path fill-rule="evenodd" clip-rule="evenodd" d="M4.14161 0.261697C3.97215 0.280304 3.84499 0.425305 3.84867 0.595742V1.55676H2.10136C1.09308 1.55676 0.26155 2.38639 0.26155 3.39658V5.3289V5.37001C0.261216 5.37857 0.261216 5.38714 0.26155 5.3957V12.8989C0.26155 13.909 1.09264 14.7387 2.10136 14.7387H12.8987C13.9074 14.7387 14.7334 13.909 14.7334 12.8989V5.41625C14.7336 5.4094 14.7336 5.40255 14.7334 5.3957C14.734 5.38372 14.734 5.37171 14.7334 5.35973V3.39658C14.7334 2.38639 13.907 1.55676 12.8987 1.55676H11.0949V0.595742C11.0963 0.506725 11.0615 0.420943 10.9986 0.357991C10.9356 0.295039 10.8498 0.260295 10.7608 0.261697C10.6736 0.26305 10.5905 0.299006 10.5297 0.361654C10.469 0.424302 10.4357 0.508508 10.4371 0.595742V1.55676H4.50648V0.595742C4.50789 0.506725 4.47314 0.420943 4.41019 0.357991C4.34724 0.295039 4.26146 0.260295 4.17244 0.261697C4.16217 0.261215 4.15188 0.261215 4.14161 0.261697ZM2.10136 2.21457H3.84867V3.17559C3.84842 3.29327 3.91105 3.40212 4.01292 3.46103C4.11479 3.51995 4.24037 3.51995 4.34224 3.46103C4.44411 3.40212 4.50674 3.29327 4.50648 3.17559V2.21457H10.4371V3.17559C10.4368 3.29327 10.4994 3.40212 10.6013 3.46103C10.7032 3.51995 10.8288 3.51995 10.9306 3.46103C11.0325 3.40212 11.0951 3.29327 11.0949 3.17559V2.21457H12.8987C13.5476 2.21457 14.0756 2.74444 14.0756 3.39658V5.06679H0.919361V3.39658C0.919361 2.74444 1.45249 2.21457 2.10136 2.21457ZM0.919361 5.7246H14.0756V12.8989C14.0756 13.551 13.5471 14.0809 12.8987 14.0809H2.10136C1.45293 14.0809 0.919361 13.551 0.919361 12.8989V5.7246Z" fill="#7A40F2"/>
<path d="M3.84867 0.595742H4.1101L4.10998 0.590097L3.84867 0.595742ZM3.84867 1.55676V1.81812H4.11004V1.55676H3.84867ZM0.26155 5.37001L0.522913 5.38022V5.37001H0.26155ZM0.26155 5.3957H0.523112L0.522713 5.38549L0.26155 5.3957ZM14.7334 5.41625L14.472 5.40808V5.41625H14.7334ZM14.7334 5.3957L14.4724 5.38141L14.4718 5.39263L14.4722 5.40387L14.7334 5.3957ZM14.7334 5.35973H14.4716L14.4724 5.37402L14.7334 5.35973ZM11.0949 1.55676H10.8335V1.81812H11.0949V1.55676ZM11.0949 0.595742L10.8335 0.591626V0.595742H11.0949ZM10.7608 0.261697L10.7649 0.523028L10.7649 0.523027L10.7608 0.261697ZM10.4371 0.595742H10.6985L10.6984 0.591627L10.4371 0.595742ZM10.4371 1.55676V1.81812H10.6984V1.55676H10.4371ZM4.50648 1.55676H4.24512V1.81812H4.50648V1.55676ZM4.50648 0.595742L4.24512 0.591626V0.595742H4.50648ZM4.17244 0.261697L4.16019 0.522772L4.16837 0.523156L4.17656 0.523027L4.17244 0.261697ZM3.84867 2.21457H4.11004V1.95321H3.84867V2.21457ZM3.84867 3.17559L4.11004 3.17617V3.17559H3.84867ZM4.50648 3.17559H4.24512L4.24512 3.17617L4.50648 3.17559ZM4.50648 2.21457V1.95321H4.24512V2.21457H4.50648ZM10.4371 2.21457H10.6984V1.95321H10.4371V2.21457ZM10.4371 3.17559L10.6984 3.17617V3.17559H10.4371ZM11.0949 3.17559H10.8335L10.8335 3.17617L11.0949 3.17559ZM11.0949 2.21457V1.95321H10.8335V2.21457H11.0949ZM14.0756 5.06679V5.32815H14.3369V5.06679H14.0756ZM0.919361 5.06679H0.657999V5.32815H0.919361V5.06679ZM0.919361 5.7246V5.46324H0.657999V5.7246H0.919361ZM14.0756 5.7246H14.3369V5.46324H14.0756V5.7246ZM4.11308 0.00189636C3.80896 0.0352883 3.58077 0.295513 3.58737 0.601386L4.10998 0.590097C4.10922 0.555096 4.13533 0.525319 4.17013 0.521498L4.11308 0.00189636ZM3.58731 0.595742V1.55676H4.11004V0.595742H3.58731ZM3.84867 1.2954H2.10136V1.81812H3.84867V1.2954ZM2.10136 1.2954C0.948906 1.2954 0.000188156 2.24187 0.000188156 3.39658H0.522913C0.522913 2.53091 1.23725 1.81812 2.10136 1.81812V1.2954ZM0.000188156 3.39658V5.3289H0.522913V3.39658H0.000188156ZM0.000188156 5.3289V5.37001H0.522913V5.3289H0.000188156ZM0.000387497 5.3598C-0.000212801 5.37516 -0.000212801 5.39054 0.000387497 5.4059L0.522713 5.38549C0.522645 5.38373 0.522645 5.38197 0.522713 5.38022L0.000387497 5.3598ZM0.000188156 5.3957V12.8989H0.522913V5.3957H0.000188156ZM0.000188156 12.8989C0.000188156 14.0535 0.948428 15 2.10136 15V14.4773C1.23685 14.4773 0.522913 13.7646 0.522913 12.8989H0.000188156ZM2.10136 15H12.8987V14.4773H2.10136V15ZM12.8987 15C14.0526 15 14.9947 14.0526 14.9947 12.8989H14.472C14.472 13.7655 13.7623 14.4773 12.8987 14.4773V15ZM14.9947 12.8989V5.41625H14.472V12.8989H14.9947ZM14.9946 5.42442C14.995 5.41213 14.995 5.39982 14.9946 5.38753L14.4722 5.40387C14.4722 5.40527 14.4722 5.40668 14.4722 5.40809L14.9946 5.42442ZM14.9944 5.40999C14.9955 5.38849 14.9955 5.36694 14.9944 5.34544L14.4724 5.37402C14.4725 5.37648 14.4725 5.37895 14.4724 5.38141L14.9944 5.40999ZM14.9947 5.35973V3.39658H14.472V5.35973H14.9947ZM14.9947 3.39658C14.9947 2.24282 14.0521 1.2954 12.8987 1.2954V1.81812C13.7619 1.81812 14.472 2.52996 14.472 3.39658H14.9947ZM12.8987 1.2954H11.0949V1.81812H12.8987V1.2954ZM11.3562 1.55676V0.595742H10.8335V1.55676H11.3562ZM11.3562 0.599857C11.3587 0.440104 11.2964 0.286155 11.1834 0.17318L10.8138 0.542802C10.8267 0.55573 10.8338 0.573347 10.8335 0.591626L11.3562 0.599857ZM11.1834 0.17318C11.0704 0.0602036 10.9165 -0.00214848 10.7567 0.00036737L10.7649 0.523027C10.7832 0.522739 10.8008 0.529874 10.8138 0.542802L11.1834 0.17318ZM10.7568 0.000366373C10.6002 0.0027938 10.451 0.0673224 10.3421 0.179753L10.7174 0.543555C10.7299 0.53069 10.747 0.523306 10.7649 0.523028L10.7568 0.000366373ZM10.3421 0.179753C10.2331 0.292184 10.1733 0.443304 10.1757 0.599856L10.6984 0.591627C10.6981 0.573711 10.705 0.556419 10.7174 0.543555L10.3421 0.179753ZM10.1757 0.595742V1.55676H10.6984V0.595742H10.1757ZM10.4371 1.2954H4.50648V1.81812H10.4371V1.2954ZM4.76785 1.55676V0.595742H4.24512V1.55676H4.76785ZM4.76781 0.599857C4.77033 0.440104 4.70798 0.286156 4.595 0.17318L4.22538 0.542802C4.23831 0.55573 4.24544 0.573346 4.24516 0.591626L4.76781 0.599857ZM4.595 0.17318C4.48203 0.0602038 4.32808 -0.00214848 4.16833 0.00036737L4.17656 0.523027C4.19484 0.522739 4.21245 0.529874 4.22538 0.542802L4.595 0.17318ZM4.18469 0.000622264C4.16626 -0.000242867 4.14779 -0.000242867 4.12935 0.000622264L4.15386 0.522772C4.15597 0.522673 4.15808 0.522673 4.16019 0.522772L4.18469 0.000622264ZM2.10136 2.47594H3.84867V1.95321H2.10136V2.47594ZM3.58731 2.21457V3.17559H4.11004V2.21457H3.58731ZM3.58731 3.17502C3.58685 3.38621 3.69925 3.58156 3.88207 3.68729L4.14377 3.23478C4.12285 3.22269 4.10998 3.20033 4.11004 3.17617L3.58731 3.17502ZM3.88207 3.68729C4.06489 3.79301 4.29027 3.79301 4.47309 3.68729L4.21139 3.23478C4.19047 3.24688 4.16468 3.24688 4.14377 3.23478L3.88207 3.68729ZM4.47309 3.68729C4.65591 3.58156 4.76831 3.38621 4.76785 3.17502L4.24512 3.17617C4.24518 3.20033 4.23231 3.22269 4.21139 3.23478L4.47309 3.68729ZM4.76785 3.17559V2.21457H4.24512V3.17559H4.76785ZM4.50648 2.47594H10.4371V1.95321H4.50648V2.47594ZM10.1757 2.21457V3.17559H10.6984V2.21457H10.1757ZM10.1757 3.17502C10.1752 3.38621 10.2876 3.58156 10.4705 3.68729L10.7322 3.23478C10.7112 3.22268 10.6984 3.20033 10.6984 3.17617L10.1757 3.17502ZM10.4705 3.68729C10.6533 3.79301 10.8787 3.79301 11.0615 3.68729L10.7998 3.23478C10.7789 3.24688 10.7531 3.24688 10.7322 3.23478L10.4705 3.68729ZM11.0615 3.68729C11.2443 3.58156 11.3567 3.38621 11.3562 3.17502L10.8335 3.17617C10.8336 3.20033 10.8207 3.22269 10.7998 3.23478L11.0615 3.68729ZM11.3562 3.17559V2.21457H10.8335V3.17559H11.3562ZM11.0949 2.47594H12.8987V1.95321H11.0949V2.47594ZM12.8987 2.47594C13.4022 2.47594 13.8142 2.88778 13.8142 3.39658H14.3369C14.3369 2.60111 13.6929 1.95321 12.8987 1.95321V2.47594ZM13.8142 3.39658V5.06679H14.3369V3.39658H13.8142ZM14.0756 4.80543H0.919361V5.32815H14.0756V4.80543ZM1.18072 5.06679V3.39658H0.657999V5.06679H1.18072ZM1.18072 3.39658C1.18072 2.88926 1.59637 2.47594 2.10136 2.47594V1.95321C1.30861 1.95321 0.657999 2.59963 0.657999 3.39658H1.18072ZM0.919361 5.98597H14.0756V5.46324H0.919361V5.98597ZM13.8142 5.7246V12.8989H14.3369V5.7246H13.8142ZM13.8142 12.8989C13.8142 13.4076 13.4019 13.8195 12.8987 13.8195V14.3422C13.6924 14.3422 14.3369 13.6944 14.3369 12.8989H13.8142ZM12.8987 13.8195H2.10136V14.3422H12.8987V13.8195ZM2.10136 13.8195C1.59674 13.8195 1.18072 13.4061 1.18072 12.8989H0.657999C0.657999 13.6959 1.30911 14.3422 2.10136 14.3422V13.8195ZM1.18072 12.8989V5.7246H0.657999V12.8989H1.18072Z" fill="#7A40F2"/>
<circle cx="4.73353" cy="9.61238" r="1.21969" fill="#7A40F2"/>
<circle cx="10.4254" cy="9.61238" r="1.21969" fill="#7A40F2"/>
</svg>
