<svg width="24" height="26" viewBox="0 0 24 26" fill="none" xmlns="http://www.w3.org/2000/svg">
<path fill-rule="evenodd" clip-rule="evenodd" d="M0.430814 12.8096C0.829566 13.4627 1.53307 13.8601 2.29042 13.8599H11.1396V24.1773H6.54539C6.07055 24.1773 5.68561 24.5622 5.68561 25.037C5.68561 25.5119 6.07055 25.8968 6.54539 25.8968H17.429C17.9039 25.8968 18.2888 25.5119 18.2888 25.037C18.2888 24.5622 17.9039 24.1773 17.429 24.1773H12.8348V13.8599H21.684C22.4362 13.8468 23.129 13.4424 23.5181 12.7893C23.9072 12.1361 23.938 11.326 23.5996 10.6444L19.3615 1.96921C18.8004 0.823886 17.6472 0.100717 16.3864 0.103496H7.58805C6.31005 0.0858 5.13591 0.815106 4.57052 1.97781L0.332413 10.653C-0.00516407 11.3406 0.0320618 12.1565 0.430814 12.8096ZM6.12167 2.74301C6.39701 2.17733 6.96611 1.82029 7.58805 1.82305H16.3864C17.0205 1.80693 17.606 2.16599 17.8867 2.74301L22.1248 11.4182C22.2013 11.573 22.1932 11.7569 22.1033 11.9042C22.0135 12.0514 21.8547 12.1408 21.684 12.1404H2.25651C2.08579 12.1408 1.92706 12.0514 1.8372 11.9042C1.74734 11.7569 1.73922 11.573 1.81575 11.4182L6.12167 2.74301Z" fill="white"/>
<path d="M2.29042 13.8599V13.7568H2.2904L2.29042 13.8599ZM0.430814 12.8096L0.518873 12.7559L0.430814 12.8096ZM11.1396 13.8599H11.2428V13.7568H11.1396V13.8599ZM11.1396 24.1773V24.2804H11.2428V24.1773H11.1396ZM12.8348 24.1773H12.7317V24.2804H12.8348V24.1773ZM12.8348 13.8599V13.7568H12.7317V13.8599H12.8348ZM21.684 13.8599V13.9631L21.6858 13.9631L21.684 13.8599ZM23.5996 10.6444L23.5069 10.6897L23.5072 10.6902L23.5996 10.6444ZM19.3615 1.96921L19.4542 1.92392L19.4542 1.92382L19.3615 1.96921ZM16.3864 0.103496V0.206671L16.3866 0.20667L16.3864 0.103496ZM7.58805 0.103496L7.58663 0.20667H7.58805V0.103496ZM4.57052 1.97781L4.66323 2.0231L4.66331 2.02293L4.57052 1.97781ZM0.332413 10.653L0.42503 10.6984L0.425117 10.6983L0.332413 10.653ZM7.58805 1.82305L7.5876 1.92623H7.58805V1.82305ZM6.12167 2.74301L6.21409 2.78888L6.21444 2.78817L6.12167 2.74301ZM16.3864 1.82305V1.92626L16.389 1.92619L16.3864 1.82305ZM17.8867 2.74301L17.7939 2.78814L17.794 2.7883L17.8867 2.74301ZM22.1248 11.4182L22.0321 11.4635L22.0323 11.4639L22.1248 11.4182ZM21.684 12.1404L21.6843 12.0372H21.684V12.1404ZM2.25651 12.1404V12.0372L2.25624 12.0372L2.25651 12.1404ZM1.8372 11.9042L1.92527 11.8504L1.8372 11.9042ZM1.81575 11.4182L1.72333 11.3723L1.72326 11.3724L1.81575 11.4182ZM2.2904 13.7568C1.56947 13.7569 0.899123 13.3787 0.518873 12.7559L0.342755 12.8634C0.760009 13.5468 1.49667 13.9633 2.29044 13.9631L2.2904 13.7568ZM11.1396 13.7568H2.29042V13.9631H11.1396V13.7568ZM11.2428 24.1773V13.8599H11.0364V24.1773H11.2428ZM6.54539 24.2804H11.1396V24.0741H6.54539V24.2804ZM5.78879 25.037C5.78879 24.6192 6.12753 24.2804 6.54539 24.2804V24.0741C6.01357 24.0741 5.58244 24.5052 5.58244 25.037H5.78879ZM6.54539 25.7936C6.12753 25.7936 5.78879 25.4549 5.78879 25.037H5.58244C5.58244 25.5689 6.01356 26 6.54539 26V25.7936ZM17.429 25.7936H6.54539V26H17.429V25.7936ZM18.1856 25.037C18.1856 25.4549 17.8469 25.7936 17.429 25.7936V26C17.9609 26 18.392 25.5689 18.392 25.037H18.1856ZM17.429 24.2804C17.8469 24.2804 18.1856 24.6192 18.1856 25.037H18.392C18.392 24.5052 17.9609 24.0741 17.429 24.0741V24.2804ZM12.8348 24.2804H17.429V24.0741H12.8348V24.2804ZM12.7317 13.8599V24.1773H12.938V13.8599H12.7317ZM21.684 13.7568H12.8348V13.9631H21.684V13.7568ZM23.4295 12.7365C23.0584 13.3593 22.3983 13.7443 21.6822 13.7568L21.6858 13.9631C22.4742 13.9494 23.1996 13.5255 23.6067 12.8421L23.4295 12.7365ZM23.5072 10.6902C23.83 11.3405 23.8006 12.1135 23.4295 12.7365L23.6067 12.8421C24.0138 12.1588 24.046 11.3114 23.692 10.5985L23.5072 10.6902ZM19.2688 2.0145L23.5069 10.6897L23.6923 10.5991L19.4542 1.92392L19.2688 2.0145ZM16.3866 0.20667C17.6074 0.203979 18.7249 0.904193 19.2689 2.0146L19.4542 1.92382C18.876 0.743579 17.687 -0.00254571 16.3861 0.000321467L16.3866 0.20667ZM7.58805 0.20667H16.3864V0.000321213H7.58805V0.20667ZM4.66331 2.02293C5.21147 0.895667 6.34922 0.189527 7.58663 0.20666L7.58948 0.000331107C6.27089 -0.0179268 5.06036 0.734545 4.47774 1.93269L4.66331 2.02293ZM0.425117 10.6983L4.66322 2.0231L4.47782 1.93252L0.23971 10.6077L0.425117 10.6983ZM0.518873 12.7559C0.138536 12.1329 0.102983 11.3545 0.42503 10.6984L0.239796 10.6075C-0.113311 11.3268 -0.074412 12.1801 0.342755 12.8634L0.518873 12.7559ZM7.58851 1.71988C6.92634 1.71694 6.32133 2.09706 6.0289 2.69786L6.21444 2.78817C6.47268 2.2576 7.00588 1.92364 7.5876 1.92622L7.58851 1.71988ZM16.3864 1.71988H7.58805V1.92623H16.3864V1.71988ZM17.9794 2.69789C17.6814 2.08505 17.0589 1.70275 16.3837 1.71991L16.389 1.92619C16.9821 1.91111 17.5307 2.24694 17.7939 2.78814L17.9794 2.69789ZM22.2175 11.3729L17.9794 2.69772L17.794 2.7883L22.0321 11.4635L22.2175 11.3729ZM22.1914 11.9579C22.2997 11.7805 22.3094 11.5589 22.2173 11.3724L22.0323 11.4639C22.0931 11.587 22.0866 11.7334 22.0152 11.8504L22.1914 11.9579ZM21.6837 12.2436C21.891 12.2441 22.083 12.1356 22.1914 11.9579L22.0152 11.8504C21.9439 11.9673 21.8185 12.0376 21.6843 12.0372L21.6837 12.2436ZM2.25651 12.2436H21.684V12.0372H2.25651V12.2436ZM1.74913 11.9579C1.85754 12.1356 2.04955 12.2441 2.25679 12.2436L2.25624 12.0372C2.12204 12.0376 1.99658 11.9673 1.92527 11.8504L1.74913 11.9579ZM1.72326 11.3724C1.63107 11.5589 1.64081 11.7805 1.74913 11.9579L1.92527 11.8504C1.85387 11.7334 1.84737 11.587 1.90824 11.4639L1.72326 11.3724ZM6.02925 2.69714L1.72333 11.3723L1.90817 11.464L6.21409 2.78888L6.02925 2.69714Z" fill="white"/>
</svg>
