<svg width="10" height="18" viewBox="0 0 10 18" fill="none" xmlns="http://www.w3.org/2000/svg">
<path d="M8.97525 11.2355C8.83891 10.9885 8.52048 10.8947 8.26403 11.0259C8.0075 11.1572 7.91013 11.4639 8.04643 11.7109C8.32439 12.2146 8.47134 12.7849 8.47134 13.3598C8.47134 14.3165 8.07992 15.2115 7.36916 15.88C6.65872 16.5483 5.7193 16.9032 4.72517 16.8812C2.75482 16.8364 1.15392 15.2545 1.15655 13.355C1.15839 12.0148 1.93391 10.8091 3.18034 10.2083C3.35846 10.1225 3.47092 9.94718 3.47092 9.75534V2.14975C3.47092 1.58069 3.95164 1.11772 4.5425 1.11772H5.08528C5.67615 1.11772 6.15686 1.58069 6.15686 2.14975V9.43962C6.15686 9.71938 6.39239 9.94617 6.68282 9.94617C6.97326 9.94617 7.20879 9.71941 7.20879 9.43962V8.83293H8.47458C8.76502 8.83293 9.00055 8.60617 9.00055 8.32639C9.00055 8.0466 8.76502 7.81984 8.47458 7.81984H7.20879V7.03131H7.70632C7.99675 7.03131 8.23228 6.80455 8.23228 6.52477C8.23228 6.24502 7.99675 6.01822 7.70632 6.01822H7.20879V5.2297H8.47458C8.76502 5.2297 9.00055 5.00293 9.00055 4.72315C9.00055 4.44336 8.76502 4.2166 8.47458 4.2166H7.20879V3.42811H7.70632C7.99675 3.42811 8.23228 3.20135 8.23228 2.92156C8.23228 2.64178 7.99675 2.41501 7.70632 2.41501H7.20879V2.14975C7.20879 1.02209 6.25622 0.104657 5.08531 0.104657H4.54254C3.37166 0.104657 2.41907 1.02209 2.41907 2.14975V9.45467C0.985537 10.2683 0.106903 11.7347 0.10463 13.3537C0.101202 15.7995 2.16283 17.8363 4.70028 17.894C4.73874 17.8949 4.77691 17.8953 4.81526 17.8953C6.05259 17.8953 7.21679 17.4395 8.10412 16.6048C9.01927 15.744 9.52322 14.5916 9.52322 13.3598C9.52322 12.6197 9.33374 11.8851 8.97525 11.2355Z" fill="#9897AD" stroke="#9897AD" stroke-width="0.2"/>
</svg>
