<svg width="23" height="27" viewBox="0 0 23 27" fill="none" xmlns="http://www.w3.org/2000/svg">
<path fill-rule="evenodd" clip-rule="evenodd" d="M12.1875 2.9375C12.1875 3.28125 11.9062 3.5625 11.5625 3.5625C11.2187 3.5625 10.9375 3.28125 10.9375 2.90625V0.624999C10.9375 0.28125 11.2187 0 11.5625 0C11.9062 0 12.1875 0.28125 12.1875 0.624999V2.9375ZM7.28124 18.4687C7.40624 18.6562 7.59374 18.75 7.81249 18.75H15.3125C15.5312 18.75 15.7187 18.6562 15.8437 18.4687C17.1875 16.4687 18.0937 13.625 18.0937 11.4375C18.0937 7.49999 15.1562 4.28124 11.5625 4.28124C7.96874 4.28124 5.03124 7.49999 5.03124 11.4375C5.03124 13.625 5.93749 16.4687 7.28124 18.4687ZM11.5625 5.53124C14.4687 5.53124 16.8437 8.18749 16.8437 11.4375C16.8437 13.3125 16.0937 15.6875 14.9687 17.5H8.15624C7.03124 15.6875 6.28124 13.3125 6.28124 11.4375C6.28124 8.18749 8.62499 5.53124 11.5625 5.53124ZM15.6562 21.0625V20.9687C15.6562 20.0312 14.875 19.25 13.9375 19.25H9.15624C8.21874 19.25 7.43749 20.0312 7.43749 20.9687V21.0625C7.43749 22 8.21874 22.7812 9.15624 22.7812H13.9375C14.9062 22.7812 15.6562 22 15.6562 21.0625ZM14.4062 21.0625C14.4062 21.3125 14.1875 21.5312 13.9375 21.5312H9.15624C8.90624 21.5312 8.68749 21.3125 8.68749 21.0625V20.9687C8.68749 20.7187 8.90624 20.5 9.15624 20.5H13.9375C14.1875 20.5 14.4062 20.7187 14.4062 20.9687V21.0625ZM10.5 23.4375H12.5937C13.5312 23.4375 14.3125 24.2187 14.3125 25.1562V25.25C14.3125 26.1875 13.5312 26.9687 12.5937 26.9687H10.5C9.56249 26.9687 8.78124 26.1875 8.78124 25.25V25.1562C8.78124 24.2187 9.56249 23.4375 10.5 23.4375ZM12.5937 25.75C12.8437 25.75 13.0625 25.5312 13.0625 25.2812V25.1875C13.0625 24.9375 12.8437 24.7187 12.5937 24.7187H10.5C10.25 24.7187 10.0312 24.9375 10.0312 25.1875V25.2812C10.0312 25.5312 10.25 25.75 10.5 25.75H12.5937ZM17.625 6.09374C17.7812 6.09374 17.9375 6.03124 18.0625 5.90624L19.6875 4.28124C19.9375 4.03124 19.9375 3.65625 19.6875 3.40625C19.4375 3.15625 19.0625 3.15625 18.8125 3.40625L17.1875 5.03124C16.9375 5.28124 16.9375 5.65624 17.1875 5.90624C17.2812 6.03124 17.4687 6.09374 17.625 6.09374ZM20.0937 12.1875C19.75 12.1875 19.4687 11.9062 19.4687 11.5625C19.4687 11.2187 19.75 10.9375 20.0937 10.9375H22.375C22.7187 10.9375 23 11.2187 23 11.5625C23 11.9062 22.7187 12.1875 22.375 12.1875H20.0937ZM19.1562 19.875C19.3125 19.875 19.4687 19.8125 19.5937 19.6875C19.8437 19.4375 19.8437 19.0625 19.5937 18.8125L17.9687 17.1875C17.7187 16.9375 17.3437 16.9375 17.0937 17.1875C16.8437 17.4375 16.8437 17.8125 17.0937 18.0625L18.7187 19.6875C18.8437 19.8125 19 19.875 19.1562 19.875ZM5.84374 17.125C6.09374 17.375 6.09374 17.75 5.84374 18L4.21874 19.625C4.09374 19.75 3.93749 19.8125 3.78125 19.8125C3.625 19.8125 3.46875 19.75 3.34375 19.625C3.09375 19.375 3.09375 19 3.34375 18.75L4.96874 17.125C5.21874 16.875 5.59374 16.875 5.84374 17.125ZM0.624999 12.0937H2.90625C3.25 12.0937 3.53125 11.8125 3.53125 11.4687C3.53125 11.125 3.25 10.8437 2.90625 10.8437H0.624999C0.28125 10.8437 0 11.125 0 11.4687C0 11.8125 0.28125 12.0937 0.624999 12.0937ZM5.46874 6.03124C5.31249 6.03124 5.15624 5.96874 5.03124 5.84374L3.40625 4.21874C3.15625 3.96874 3.15625 3.59375 3.40625 3.34375C3.65625 3.09375 4.03124 3.09375 4.28124 3.34375L5.90624 4.96874C6.15624 5.21874 6.15624 5.59374 5.90624 5.84374C5.78124 5.96874 5.62499 6.03124 5.46874 6.03124Z" fill="#9897AD"/>
</svg>
