<svg width="40" height="40" viewBox="0 0 40 40" fill="none" xmlns="http://www.w3.org/2000/svg">
<circle cx="20" cy="20" r="20" fill="#FF9060"/>
<mask id="mask0_0_223" style="mask-type:luminance" maskUnits="userSpaceOnUse" x="0" y="0" width="40" height="40">
<circle cx="20" cy="20" r="20" fill="white"/>
</mask>
<g mask="url(#mask0_0_223)">
<path d="M21.9127 16.0265C21.7051 16.753 21.1862 17.6871 21.3419 18.4655C21.3419 18.5693 21.3938 18.6212 21.4456 18.6731C21.5494 18.7769 21.7051 18.7769 21.8608 18.725C23.5214 18.3098 24.5592 16.2341 25.2338 14.7811C25.4414 14.2621 25.649 13.7951 25.7528 13.2243C25.9604 11.8232 25.2338 10.3183 24.0403 9.64365C23.5733 9.38418 22.9505 9.17661 22.4316 9.2804C21.8089 9.38418 21.0305 9.90312 20.9267 10.5258C20.771 11.3042 21.4975 11.5637 21.8089 12.1345C22.1203 12.7054 22.224 13.4319 22.224 14.0546C22.224 14.6773 22.1721 15.3 22.0165 15.8708C21.9127 15.9227 21.9127 15.9746 21.9127 16.0265Z" fill="#110809"/>
<path d="M17.0347 24.3294C17.0347 23.7586 16.9828 23.2396 16.7752 22.7207C16.7233 22.6169 16.6714 22.5131 16.6195 22.4612C16.4638 22.3575 16.2563 22.4093 16.1006 22.4612C13.8173 23.3434 11.7935 24.4332 9.9253 25.99C8.36851 27.2873 6.65603 29.1036 6.24089 31.1793C5.98142 32.4766 5.98142 33.774 6.29278 35.0713C6.55225 36.3167 7.12307 37.4584 7.6939 38.5481C8.10904 39.3265 8.57608 40.053 9.14691 40.7277C9.56205 41.1947 11.4302 43.6337 12.1048 44.1526C12.3643 43.945 12.8313 43.4261 13.0908 43.1666C13.454 42.8034 13.8173 42.4401 14.1287 42.025C13.2984 40.7795 12.4162 39.586 11.7416 38.2887C11.0151 36.9913 10.4442 35.5383 10.3404 33.9815C10.2367 32.5804 11.067 31.4388 12.001 30.5566C13.0389 29.5187 14.4919 29.0517 15.5298 27.91C15.893 27.4949 16.2563 27.0278 16.5157 26.5089C16.7752 25.8862 17.0347 25.1078 17.0347 24.3294Z" fill="#FFC70E"/>
<path d="M21.9128 18.4655C21.7571 19.2958 21.6014 20.126 21.7052 20.9563C21.7571 21.3715 21.9128 21.7866 22.0684 22.2018C22.1722 22.4093 22.2241 22.6169 22.3279 22.8245C22.3798 22.9802 22.5874 23.2915 22.5874 23.4991C23.2101 25.3673 22.3279 27.7025 20.5635 28.7403C20.3041 28.896 20.0446 28.9998 19.7851 29.0517C19.4219 29.1036 19.1105 28.9479 18.7992 28.7922C18.7473 28.7403 18.6954 28.7403 18.6435 28.6884C17.7094 28.1176 17.1386 27.2354 16.8791 26.1976C16.6197 25.0559 16.931 23.8624 17.3981 22.8245C17.5018 22.6169 17.6056 22.3575 17.7094 22.1499C18.0208 21.3715 18.0208 20.5412 18.0208 19.7109C17.9689 18.9325 17.7613 18.1022 17.917 17.3238C18.0208 16.6492 18.4359 16.0784 19.0067 15.7151C19.4738 15.4038 19.9927 15.3 20.5117 15.3519C20.9787 15.4038 21.6014 15.5594 21.8609 15.9746C22.0684 16.2859 22.1722 16.7011 22.1722 17.1162C22.1722 17.5314 22.1203 17.8946 22.0684 18.3098C21.9128 18.2579 21.9128 18.3617 21.9128 18.4655Z" fill="#FFD8CC"/>
<path d="M16.6197 11.2523C17.1905 10.7334 18.6954 11.2004 19.4738 11.0966C20.3041 11.0447 21.809 10.7853 22.4317 11.5118C23.262 12.4459 23.6252 14.0545 23.5733 15.2481C23.4696 17.5833 21.6533 19.659 19.2662 19.7109C17.9689 19.7628 17.0348 18.9325 16.5159 17.5314C16.4121 17.2719 16.2045 16.4416 16.1526 16.1822C15.7894 14.6773 15.9969 11.8231 16.6197 11.2523Z" fill="#FFD8CC"/>
<path fill-rule="evenodd" clip-rule="evenodd" d="M17.9754 14.1617C17.9681 14.4383 17.7828 14.6584 17.5618 14.6536C17.3406 14.6485 17.1671 14.4204 17.1743 14.1438C17.1818 13.8672 17.3669 13.6471 17.5881 13.6519C17.8093 13.657 17.9826 13.8854 17.9754 14.1617Z" fill="#172133"/>
<path fill-rule="evenodd" clip-rule="evenodd" d="M20.5056 14.1667C20.4983 14.4433 20.3132 14.6634 20.0917 14.6586C19.8708 14.6535 19.6973 14.4254 19.7045 14.1488C19.7117 13.8722 19.8971 13.6521 20.1183 13.6569C20.3392 13.662 20.5128 13.8904 20.5056 14.1667Z" fill="#172133"/>
<path d="M23.0544 15.4557C23.0544 15.8708 23.3657 16.2341 23.729 16.1822C24.0922 16.1303 24.2998 15.767 24.2998 15.3519C24.2998 14.9367 23.9884 14.5735 23.6252 14.6254C23.2619 14.6254 23.0544 15.0405 23.0544 15.4557Z" fill="#FAD9CF"/>
<path d="M15.6855 15.5076C15.6855 15.9227 15.9969 16.286 16.3601 16.2341C16.7234 16.1822 16.9309 15.8189 16.9309 15.4038C16.9309 14.9886 16.6196 14.6254 16.2563 14.6773C15.945 14.6773 15.6855 15.0405 15.6855 15.5076Z" fill="#FAD9CF"/>
<path d="M27.6728 23.7067C26.8944 23.0321 25.8565 22.7207 24.8706 22.4613C24.1959 22.2537 23.5213 22.098 22.8986 21.8904C22.691 21.8385 22.224 21.5791 22.0164 21.6829C21.8089 21.7866 21.8089 22.1499 21.7051 22.3056C21.3418 23.0321 20.4077 24.018 19.6812 24.3813C19.6293 24.4851 19.5256 24.537 19.4218 24.537C19.3699 24.537 19.318 24.537 19.2661 24.4851C19.2142 24.4851 19.1623 24.4851 19.1104 24.4851C18.4358 24.2775 18.2801 23.4472 17.9688 22.9283C17.4498 22.098 16.3601 22.3575 15.6855 22.8245C14.9071 23.3953 14.44 24.3294 14.1287 25.2116C13.4022 27.443 13.454 29.6744 14.0249 31.9058C14.6476 34.3448 14.959 36.8357 15.1665 39.3265C15.2703 40.7277 15.2703 42.1288 15.426 43.5299C15.5817 44.931 16.6195 44.3602 17.6055 44.2564C18.0725 44.2045 18.5915 44.2564 19.0585 44.2564L22.6391 44.3083C23.3657 44.3083 24.1959 44.2564 24.9224 44.3602C25.2857 44.4121 25.7008 44.5678 25.9603 44.2045C26.2198 43.8413 26.2198 42.9072 26.2717 42.492C26.4274 40.6758 26.6349 38.8595 26.6349 37.0432C26.6868 36.2648 26.7387 35.4864 26.8425 34.708C27.102 32.7361 27.6728 30.7642 27.9841 28.8441C28.0879 28.2733 28.1917 27.6506 28.2436 27.0797C28.2436 26.0938 28.5031 24.4332 27.6728 23.7067Z" fill="#FFDA3B"/>
<path d="M21.7051 21.0082L23.2619 22.0461L21.3419 26.2495L19.3699 24.5889L21.7051 21.0082Z" fill="white"/>
<path d="M17.7613 21.3715L16.7753 22.3575L17.4499 26.2495L19.3699 24.5889L17.7613 21.3715Z" fill="white"/>
<path d="M20.1932 16.5382C20.1414 17.0571 19.5705 17.4722 18.8959 17.4722C18.2213 17.4722 17.6505 17.0571 17.5986 16.5382C17.5986 16.5382 18.455 16.9533 18.8959 16.9533C19.3199 16.9533 20.1932 16.5382 20.1932 16.5382Z" fill="#D09483"/>
<path d="M30.008 41.0909C30.1118 42.9072 29.5929 47.5257 29.0739 48.9787C29.0739 48.9787 30.4231 49.2381 31.0459 49.3938C31.2534 49.4457 31.5129 49.4976 31.7205 49.5495C31.8243 49.5495 33.0697 45.5018 33.1216 45.1386C33.7443 42.9591 34.2632 40.5201 34.0557 38.2368C33.5886 33.6702 31.8243 29.2593 29.1777 25.5229C28.6069 24.6927 27.9323 23.8624 27.102 23.3434C26.9463 23.2396 26.7906 23.1359 26.583 23.1359C25.13 22.8764 24.663 25.2635 24.7668 26.1976C24.8187 27.0797 25.2857 27.91 25.7009 28.5846C26.7387 30.349 27.8804 31.6982 28.555 33.6183C29.4372 36.0573 29.9042 38.4444 30.008 41.0909Z" fill="#FFC70E"/>
<path d="M24.8706 14.6254C24.9225 14.5216 24.9225 14.3659 24.9744 14.2621C25.182 13.4837 25.2858 12.6535 25.182 11.8232C25.0782 10.8372 24.6631 9.90312 23.8847 9.2804C23.0025 8.55389 21.8608 8.13875 20.6673 8.08685C19.0067 8.08685 17.0867 9.02093 16.412 10.5777C16.2045 11.0448 16.1526 11.6156 15.9969 12.0826C15.8931 12.6016 15.6855 13.1205 15.3223 13.4837C15.6336 13.5875 15.945 13.4837 16.2045 13.3281C17.1904 12.7572 18.1245 11.8751 18.7472 10.941C19.0586 11.5118 19.4218 12.0307 19.8889 12.4978C19.9408 12.5497 19.9927 12.6016 20.0446 12.6016C20.4078 12.9129 20.7711 13.2243 21.1862 13.4837C21.7051 13.847 22.276 14.1584 22.8468 14.314C23.1582 14.4178 23.5214 14.4697 23.8328 14.6254C24.1441 14.7811 24.4036 15.0405 24.4555 15.3519C24.4036 15.1443 24.5593 15.0405 24.6631 14.833C24.7668 14.8849 24.8187 14.7292 24.8706 14.6254Z" fill="#110809"/>
<path d="M23.9885 6.32249C23.3657 6.37438 22.8987 6.78953 22.743 7.41225C22.4836 8.29443 23.0025 9.17662 22.4836 9.95501C22.2241 10.3702 22.6392 10.7334 23.0025 10.6815C23.5733 11.0448 24.6112 10.7334 25.1301 10.5258C25.7528 10.2664 26.3236 9.79933 26.3755 9.12472C26.4793 7.82739 25.4415 6.16681 23.9885 6.32249Z" fill="#110809"/>
</g>
</svg>
