<svg width="13" height="24" viewBox="0 0 13 24" fill="none" xmlns="http://www.w3.org/2000/svg">
<path d="M11.7941 15.0027C11.6136 14.6709 11.1921 14.5449 10.8526 14.7212C10.5131 14.8975 10.3842 15.3095 10.5646 15.6412C10.9325 16.3178 11.1271 17.0838 11.1271 17.856C11.1271 19.141 10.6089 20.3431 9.6681 21.2411C8.72769 22.1387 7.48415 22.6154 6.16822 22.5859C3.56004 22.5257 1.4409 20.4009 1.44439 17.8495C1.44682 16.0494 2.47339 14.4299 4.1233 13.623C4.35908 13.5078 4.50794 13.2722 4.50794 13.0146V2.79888C4.50794 2.03453 5.14428 1.41268 5.92642 1.41268H6.64489C7.42703 1.41268 8.06337 2.03453 8.06337 2.79888V12.5905C8.06337 12.9663 8.37513 13.2709 8.75959 13.2709C9.14404 13.2709 9.45581 12.9663 9.45581 12.5905V11.7756H11.1314C11.5158 11.7756 11.8276 11.471 11.8276 11.0952C11.8276 10.7194 11.5158 10.4148 11.1314 10.4148H9.45581V9.3557H10.1144C10.4989 9.3557 10.8106 9.05112 10.8106 8.67532C10.8106 8.29956 10.4989 7.99493 10.1144 7.99493H9.45581V6.9358H11.1314C11.5158 6.9358 11.8276 6.63122 11.8276 6.25542C11.8276 5.87961 11.5158 5.57503 11.1314 5.57503H9.45581V4.51595H10.1144C10.4989 4.51595 10.8106 4.21137 10.8106 3.83556C10.8106 3.45976 10.4989 3.15518 10.1144 3.15518H9.45581V2.79888C9.45581 1.28423 8.19489 0.0519512 6.64494 0.0519512H5.92646C4.37656 0.0519512 3.1156 1.28423 3.1156 2.79888V12.6107C1.21801 13.7035 0.0549498 15.6731 0.051941 17.8478C0.047404 21.1329 2.77641 23.8688 6.13526 23.9463C6.18617 23.9475 6.2367 23.948 6.28747 23.948C7.92534 23.948 9.46641 23.3357 10.641 22.2146C11.8524 21.0584 12.5195 19.5105 12.5195 17.856C12.5195 16.8619 12.2686 15.8752 11.7941 15.0027Z" fill="#242424" stroke="#242424" stroke-width="0.1"/>
</svg>
