<svg width="27" height="34" viewBox="0 0 27 34" fill="none" xmlns="http://www.w3.org/2000/svg">
<path d="M20.7788 12.7339L18.3262 7.94748L13.5196 6.27307L13.5085 6.30881L6.03792 8.53943C5.50947 8.69906 5.04477 9.03341 4.7135 9.49234C4.38223 9.95128 4.20223 10.5101 4.2005 11.0849V18.0288H6.73378V11.085L12.5603 9.34532L9.98651 17.5882L9.97424 17.5835L7.64172 24.4089C7.52886 24.7338 7.29948 25.0001 7.00211 25.1514C6.70474 25.3027 6.3627 25.3272 6.04837 25.2197L0.80115 23.3916L0 25.9032L5.24722 27.731C6.18996 28.0593 7.21826 27.9886 8.11173 27.5341C9.00521 27.0795 9.69276 26.2773 10.027 25.2994L11.9454 19.6861L13.3049 20.1494L17.1285 24.1453C17.2467 24.268 17.3404 24.414 17.4042 24.5748C17.468 24.7356 17.5007 24.908 17.5002 25.0821V33.9134H20.0335V25.0821C20.0348 24.5604 19.9372 24.0436 19.7461 23.5616C19.5551 23.0796 19.2745 22.642 18.9205 22.274L15.0996 18.281L17.2199 11.4906L18.7453 14.36C18.9099 14.6695 19.1507 14.9274 19.4427 15.1069C19.7347 15.2865 20.0673 15.3813 20.4061 15.3814H27V12.7339H20.7788Z" fill="#9897AD"/>
<path d="M15.5075 5.26381C16.0051 5.69835 16.6296 5.94256 17.2779 5.95612C17.9262 5.96968 18.5596 5.75178 19.0734 5.33839C19.5873 4.92501 19.9508 4.34086 20.1041 3.6824C20.2574 3.02394 20.1912 2.33054 19.9165 1.71668C19.6419 1.10282 19.1751 0.605211 18.5932 0.306013C18.0114 0.00681478 17.3493 -0.0760819 16.7164 0.0710096C16.0834 0.218101 15.5173 0.586386 15.1116 1.11506C14.7059 1.64373 14.4849 2.30117 14.485 2.97884C14.4843 3.41483 14.5755 3.84564 14.7522 4.24058C14.929 4.63553 15.1868 4.98489 15.5075 5.26381Z" fill="#9897AD"/>
</svg>
