<svg width="26" height="26" viewBox="0 0 26 26" fill="none" xmlns="http://www.w3.org/2000/svg">
<path fill-rule="evenodd" clip-rule="evenodd" d="M3.91223 3.91227C6.41831 1.40619 9.71097 0.153081 13 0.153069C16.2891 0.153057 19.5817 1.40618 22.0878 3.91227C27.1 8.92445 27.1 17.0665 22.0878 22.0787C17.0756 27.0908 8.9244 27.0909 3.91223 22.0787C-1.09995 17.0665 -1.09994 8.92444 3.91223 3.91227ZM21.2575 4.73346C18.9746 2.45053 15.9877 1.31184 13 1.31185C10.0123 1.31186 7.02547 2.45053 4.74254 4.73346C0.176681 9.29931 0.176679 16.6917 4.74254 21.2575C9.3084 25.8234 16.6916 25.8234 21.2575 21.2575C25.8233 16.6917 25.8233 9.29932 21.2575 4.73346ZM13 4.02176C12.8468 4.02189 12.6967 4.02322 12.5438 4.03089C12.5225 4.02972 12.5012 4.02972 12.4799 4.03089C12.2713 4.05205 12.0898 4.18292 12.0038 4.37421C11.9178 4.56549 11.9404 4.78812 12.0631 4.95821C12.1858 5.1283 12.3899 5.22002 12.5985 5.1988C14.7396 5.09151 16.908 5.82209 18.5384 7.45249C20.1689 9.08291 20.8995 11.2513 20.7921 13.3924C20.777 13.7149 21.0262 13.9886 21.3487 14.0037C21.6712 14.0188 21.9449 13.7697 21.9601 13.4471C22.0828 11 21.2426 8.49599 19.3688 6.62218C17.612 4.8655 15.2984 4.01989 13 4.02176ZM9.93425 9.92517C10.7795 9.07996 11.8878 8.6569 13 8.6569C14.1122 8.65689 15.2206 9.07996 16.0658 9.92517C17.7562 11.6156 17.7562 14.3754 16.0658 16.0658C14.3754 17.7562 11.6247 17.7562 9.93425 16.0658C8.24383 14.3754 8.24384 11.6156 9.93425 9.92517ZM13 9.81568C13.8109 9.81568 14.6225 10.1334 15.2446 10.7555C16.4887 11.9996 16.4887 14.0005 15.2446 15.2446C14.0005 16.4887 11.9995 16.4887 10.7554 15.2446C9.51134 14.0005 9.51133 11.9996 10.7554 10.7555C11.3775 10.1334 12.1891 9.81568 13 9.81568ZM4.03084 12.5347C4.0443 12.2366 4.2804 11.9965 4.5783 11.9781C4.74594 11.9673 4.91013 12.0292 5.02891 12.148C5.1477 12.2668 5.20958 12.4309 5.19875 12.5986C5.09136 14.7396 5.82211 16.9081 7.45245 18.5385C9.08297 20.1689 11.2514 20.8995 13.3924 20.7922C13.601 20.7808 13.7999 20.8815 13.9141 21.0565C14.0283 21.2315 14.0405 21.4541 13.946 21.6405C13.8516 21.8269 13.6649 21.9487 13.4562 21.9601C11.0091 22.0828 8.50516 21.2335 6.63126 19.3597C4.75753 17.4859 3.9081 14.9819 4.03084 12.5347Z" fill="white"/>
<path d="M3.91223 3.91227L3.80399 3.80403L3.91223 3.91227ZM22.0878 3.91227L21.9796 4.02051L22.0878 3.91227ZM22.0878 22.0787L22.196 22.1869L22.0878 22.0787ZM3.91223 22.0787L4.02047 21.9705L3.91223 22.0787ZM13 1.31185V1.46493V1.31185ZM21.2575 4.73346L21.1492 4.8417L21.2575 4.73346ZM4.74254 4.73346L4.85078 4.8417V4.8417L4.74254 4.73346ZM4.74254 21.2575L4.85078 21.1493H4.85078L4.74254 21.2575ZM21.2575 21.2575L21.1492 21.1493L21.2575 21.2575ZM12.5438 4.03089L12.5354 4.18373L12.5434 4.18417L12.5515 4.18377L12.5438 4.03089ZM13 4.02176L12.9999 3.86869L13 4.02176ZM12.4799 4.03089L12.4715 3.87788L12.4645 3.87859L12.4799 4.03089ZM12.0038 4.37421L12.1434 4.43697V4.43697L12.0038 4.37421ZM12.0631 4.95821L11.9389 5.04776V5.04776L12.0631 4.95821ZM12.5985 5.1988L12.5909 5.04571L12.5831 5.04651L12.5985 5.1988ZM18.5384 7.45249L18.6467 7.34425V7.34425L18.5384 7.45249ZM20.7921 13.3924L20.6393 13.3847L20.6392 13.3852L20.7921 13.3924ZM21.3487 14.0037L21.3559 13.8508L21.3487 14.0037ZM21.9601 13.4471L21.8072 13.4395L21.8071 13.44L21.9601 13.4471ZM19.3688 6.62218L19.477 6.51394V6.51394L19.3688 6.62218ZM13 8.6569V8.50382V8.6569ZM9.93425 9.92517L9.82601 9.81693L9.93425 9.92517ZM16.0658 16.0658L15.9575 15.9576L15.9575 15.9576L16.0658 16.0658ZM9.93425 16.0658L10.0425 15.9576L10.0425 15.9576L9.93425 16.0658ZM15.2446 10.7555L15.1363 10.8637L15.2446 10.7555ZM13 9.81568L13 9.96876L13 9.81568ZM15.2446 15.2446L15.1363 15.1364L15.1363 15.1364L15.2446 15.2446ZM10.7554 15.2446L10.8637 15.1364L10.8637 15.1364L10.7554 15.2446ZM10.7554 10.7555L10.6472 10.6472L10.7554 10.7555ZM4.5783 11.9781L4.58773 12.1309L4.58817 12.1309L4.5783 11.9781ZM4.03084 12.5347L4.18373 12.5424L4.18376 12.5416L4.03084 12.5347ZM5.02891 12.148L5.13715 12.0397L5.13715 12.0397L5.02891 12.148ZM5.19875 12.5986L5.04598 12.5887L5.04587 12.5909L5.19875 12.5986ZM7.45245 18.5385L7.34421 18.6467L7.34421 18.6467L7.45245 18.5385ZM13.3924 20.7922L13.4 20.9451L13.4007 20.945L13.3924 20.7922ZM13.9141 21.0565L13.7859 21.1402H13.7859L13.9141 21.0565ZM13.4562 21.9601L13.4639 22.113L13.4646 22.1129L13.4562 21.9601ZM6.63126 19.3597L6.52302 19.4679L6.52302 19.4679L6.63126 19.3597ZM13 -6.23473e-06C9.67216 5.58085e-06 6.34002 1.268 3.80399 3.80403L4.02047 4.02051C6.49661 1.54438 9.74978 0.306156 13 0.306144L13 -6.23473e-06ZM22.196 3.80403C19.66 1.268 16.3279 -1.80503e-05 13 -6.23473e-06L13 0.306144C16.2502 0.306133 19.5034 1.54437 21.9796 4.02051L22.196 3.80403ZM22.196 22.1869C27.268 17.115 27.268 8.87599 22.196 3.80403L21.9796 4.02051C26.9319 8.97291 26.9319 17.0181 21.9796 21.9705L22.196 22.1869ZM3.80399 22.1869C8.87594 27.2589 17.1241 27.2589 22.196 22.1869L21.9796 21.9705C17.0272 26.9228 8.97286 26.9229 4.02047 21.9705L3.80399 22.1869ZM3.80399 3.80403C-1.26796 8.87598 -1.26797 17.115 3.80399 22.1869L4.02047 21.9705C-0.931927 17.0181 -0.931918 8.9729 4.02047 4.02051L3.80399 3.80403ZM13 1.46493C15.9488 1.46492 18.8962 2.58862 21.1492 4.8417L21.3657 4.62522C19.0529 2.31243 16.0267 1.15877 13 1.15878V1.46493ZM4.85078 4.8417C7.10385 2.58862 10.0513 1.46494 13 1.46493V1.15878C9.97336 1.15879 6.94708 2.31243 4.6343 4.62522L4.85078 4.8417ZM4.85078 21.1493C0.344699 16.6432 0.344701 9.34777 4.85078 4.8417L4.6343 4.62522C0.00866088 9.25085 0.00865822 16.7401 4.6343 21.3658L4.85078 21.1493ZM21.1492 21.1493C16.6432 25.6554 9.35686 25.6554 4.85078 21.1493L4.6343 21.3658C9.25994 25.9915 16.7401 25.9914 21.3657 21.3658L21.1492 21.1493ZM21.1492 4.8417C25.6553 9.34778 25.6553 16.6432 21.1492 21.1493L21.3657 21.3658C25.9914 16.7402 25.9914 9.25085 21.3657 4.62522L21.1492 4.8417ZM12.5515 4.18377C12.7005 4.1763 12.8475 4.17496 13.0001 4.17484L12.9999 3.86869C12.8461 3.86881 12.693 3.87014 12.5361 3.878L12.5515 4.18377ZM12.4883 4.18373C12.504 4.18287 12.5197 4.18287 12.5354 4.18373L12.5522 3.87804C12.5253 3.87657 12.4984 3.87657 12.4716 3.87804L12.4883 4.18373ZM12.1434 4.43697C12.207 4.29557 12.3411 4.19882 12.4954 4.18318L12.4645 3.87859C12.2014 3.90527 11.9726 4.07028 11.8642 4.31145L12.1434 4.43697ZM12.1872 4.86867C12.0966 4.74293 12.0798 4.57837 12.1434 4.43697L11.8642 4.31145C11.7558 4.55262 11.7843 4.83331 11.9389 5.04776L12.1872 4.86867ZM12.5831 5.04651C12.4288 5.06219 12.2779 4.9944 12.1872 4.86867L11.9389 5.04776C12.0936 5.26221 12.351 5.37784 12.614 5.35108L12.5831 5.04651ZM18.6467 7.34425C16.9833 5.68093 14.7717 4.93663 12.5909 5.04591L12.6062 5.35168C14.7074 5.24639 16.8327 5.96325 18.4302 7.56073L18.6467 7.34425ZM20.945 13.4001C21.0544 11.2192 20.31 9.00759 18.6467 7.34425L18.4302 7.56073C20.0277 9.15824 20.7447 11.2835 20.6393 13.3847L20.945 13.4001ZM21.3559 13.8508C21.1178 13.8397 20.9339 13.6376 20.9451 13.3996L20.6392 13.3852C20.6202 13.7922 20.9346 14.1376 21.3416 14.1566L21.3559 13.8508ZM21.8071 13.44C21.796 13.678 21.594 13.862 21.3559 13.8508L21.3416 14.1566C21.7485 14.1757 22.0939 13.8613 22.113 13.4543L21.8071 13.44ZM19.2605 6.73042C21.1014 8.57129 21.9279 11.0321 21.8072 13.4395L22.1129 13.4548C22.2377 10.9679 21.3838 8.4207 19.477 6.51394L19.2605 6.73042ZM13.0001 4.17484C15.2611 4.17299 17.5348 5.0047 19.2605 6.73042L19.477 6.51394C17.6893 4.72631 15.3356 3.86678 12.9999 3.86869L13.0001 4.17484ZM13 8.50382C11.8489 8.50382 10.7011 8.94182 9.82601 9.81693L10.0425 10.0334C10.8578 9.21811 11.9267 8.80997 13 8.80997V8.50382ZM16.174 9.81693C15.2989 8.94182 14.1511 8.50382 13 8.50382V8.80997C14.0733 8.80997 15.1422 9.2181 15.9575 10.0334L16.174 9.81693ZM16.174 16.1741C17.9242 14.4239 17.9242 11.5671 16.174 9.81693L15.9575 10.0334C17.5882 11.6641 17.5882 14.3269 15.9575 15.9576L16.174 16.1741ZM9.82601 16.1741C11.5762 17.9243 14.4238 17.9243 16.174 16.1741L15.9575 15.9576C14.3269 17.5882 11.6731 17.5882 10.0425 15.9576L9.82601 16.1741ZM9.82601 9.81693C8.07582 11.5671 8.07581 14.4239 9.82601 16.1741L10.0425 15.9576C8.41185 14.3269 8.41186 11.664 10.0425 10.0334L9.82601 9.81693ZM15.3528 10.6472C14.7017 9.99612 13.851 9.6626 13 9.66261L13 9.96876C13.7708 9.96875 14.5434 10.2707 15.1363 10.8637L15.3528 10.6472ZM15.3528 15.3529C16.6567 14.049 16.6567 11.9511 15.3528 10.6472L15.1363 10.8637C16.3207 12.048 16.3207 13.9521 15.1363 15.1364L15.3528 15.3529ZM10.6472 15.3529C11.9511 16.6568 14.0489 16.6568 15.3528 15.3529L15.1363 15.1364C13.952 16.3207 12.048 16.3207 10.8637 15.1364L10.6472 15.3529ZM10.6472 10.6472C9.34331 11.9511 9.34332 14.049 10.6472 15.3529L10.8637 15.1364C9.67936 13.9521 9.67935 12.048 10.8637 10.8637L10.6472 10.6472ZM13 9.66261C12.1491 9.66261 11.2983 9.99612 10.6472 10.6472L10.8637 10.8637C11.4567 10.2707 12.2292 9.96876 13 9.96876L13 9.66261ZM4.56888 11.8253C4.19289 11.8485 3.8949 12.1515 3.87792 12.5278L4.18376 12.5416C4.19369 12.3216 4.36791 12.1445 4.58773 12.1309L4.56888 11.8253ZM5.13715 12.0397C4.98723 11.8898 4.78001 11.8117 4.56843 11.8254L4.58817 12.1309C4.71187 12.1229 4.83302 12.1686 4.92067 12.2562L5.13715 12.0397ZM5.35151 12.6085C5.36518 12.3969 5.28708 12.1897 5.13715 12.0397L4.92067 12.2562C5.00832 12.3439 5.05399 12.465 5.046 12.5887L5.35151 12.6085ZM7.56069 18.4302C5.96327 16.8328 5.24624 14.7074 5.35164 12.6063L5.04587 12.5909C4.93648 14.7717 5.68096 16.9835 7.34421 18.6467L7.56069 18.4302ZM13.3847 20.6393C11.2835 20.7446 9.15829 20.0278 7.56069 18.4302L7.34421 18.6467C9.00765 20.3101 11.2193 21.0544 13.4 20.9451L13.3847 20.6393ZM14.0423 20.9728C13.8982 20.752 13.6472 20.6249 13.384 20.6393L13.4007 20.945C13.5548 20.9366 13.7016 21.011 13.7859 21.1402L14.0423 20.9728ZM14.0826 21.7097C14.2017 21.4745 14.1864 21.1936 14.0423 20.9728L13.7859 21.1402C13.8702 21.2693 13.8792 21.4337 13.8095 21.5713L14.0826 21.7097ZM13.4646 22.1129C13.7278 22.0986 13.9634 21.9448 14.0826 21.7097L13.8095 21.5713C13.7398 21.7089 13.6019 21.7988 13.4479 21.8072L13.4646 22.1129ZM6.52302 19.4679C8.4296 21.3744 10.9766 22.2377 13.4639 22.113L13.4486 21.8072C11.0416 21.9279 8.58072 21.0926 6.7395 19.2514L6.52302 19.4679ZM3.87796 12.527C3.7532 15.0144 4.6166 17.5615 6.52302 19.4679L6.7395 19.2514C4.89845 17.4104 4.063 14.9494 4.18373 12.5424L3.87796 12.527Z" fill="white"/>
</svg>
