<svg width="14" height="19" viewBox="0 0 14 19" fill="none" xmlns="http://www.w3.org/2000/svg">
<path d="M6.5636 0.833338C6.66452 0.679331 6.88867 0.680569 6.98968 0.834511C7.73369 1.96829 10.2356 5.78252 11.5113 7.74753C12.337 9.01907 12.8489 10.4009 12.8213 11.9865C12.756 15.7311 9.77094 18.2851 6.98357 18.2816C5.12396 18.279 3.56466 17.66 2.30718 16.2038C0.537612 14.1546 0.209687 11.1856 1.50732 8.7024C1.99384 7.77131 2.60723 6.91697 3.17381 6.03551C4.09539 4.60231 5.93902 1.78648 6.5636 0.833338Z" stroke="#9897AD" stroke-width="1.4"/>
<path fill-rule="evenodd" clip-rule="evenodd" d="M4.12256 9.88275C3.69008 10.7919 3.37543 11.5701 3.5778 12.6112C3.67541 13.1134 3.92239 13.5707 4.29217 13.9341C4.46586 14.1048 4.46075 14.381 4.28078 14.5508C4.21451 14.6132 4.13381 14.6527 4.04972 14.669C3.90488 14.6972 3.74994 14.6572 3.64019 14.5492C3.14681 14.0645 2.81721 13.4541 2.68702 12.7844C2.4361 11.4935 2.81595 10.5466 3.29963 9.5299C3.40456 9.30971 3.67357 9.20986 3.90073 9.30748C4.12803 9.4049 4.2273 9.66259 4.12256 9.88275Z" fill="#9897AD" stroke="#9897AD" stroke-width="0.5"/>
</svg>
