<svg width="27" height="24" viewBox="0 0 27 24" fill="none" xmlns="http://www.w3.org/2000/svg">
<path fill-rule="evenodd" clip-rule="evenodd" d="M13.5 0.353939C10.0132 0.353939 6.52887 1.80448 3.86972 4.7149C3.79118 4.79957 3.75958 4.92401 3.78684 5.04133C3.81409 5.15866 3.89605 5.25103 4.00183 5.28365C4.10762 5.31627 4.22115 5.28417 4.29965 5.19945C9.38343 -0.364717 17.6166 -0.364717 22.7004 5.19945C22.7789 5.28417 22.8924 5.31627 22.9982 5.28365C23.104 5.25103 23.1859 5.15866 23.2132 5.04133C23.2404 4.92401 23.2088 4.79957 23.1303 4.7149C20.4711 1.80448 16.9868 0.353939 13.5 0.353939ZM13.5 3.48246C10.9821 3.48246 8.46472 4.5307 6.5448 6.63204C6.46626 6.71671 6.43466 6.84115 6.46191 6.95847C6.48916 7.07579 6.57112 7.16817 6.67691 7.20079C6.78269 7.2334 6.89623 7.20131 6.97472 7.11659C10.58 3.17058 16.42 3.17058 20.0253 7.11659C20.1038 7.20131 20.2173 7.2334 20.3231 7.20079C20.4289 7.16817 20.5108 7.07579 20.5381 6.95847C20.5653 6.84115 20.5337 6.71671 20.4552 6.63204C18.5353 4.5307 16.0179 3.48246 13.5 3.48246ZM9.32497 8.67558C10.4758 7.41599 11.9901 6.77951 13.5 6.77951C15.0099 6.77951 16.5242 7.41599 17.675 8.67558C17.7519 8.76213 17.781 8.88731 17.7514 9.00394C17.7218 9.12058 17.638 9.21094 17.5316 9.24099C17.4252 9.27104 17.3123 9.2362 17.2356 9.1496C15.1684 6.88708 11.8316 6.88708 9.76445 9.1496C9.68766 9.2362 9.57479 9.27104 9.46838 9.24099C9.36197 9.21094 9.27819 9.12058 9.24861 9.00394C9.21902 8.88731 9.24813 8.76213 9.32497 8.67558ZM13.5 9.20227C13.1689 9.20227 12.8981 9.50342 12.8981 9.8659C12.8981 10.1054 13.0192 10.3096 13.1943 10.4242V15.7121H2.64683C1.38412 15.7121 0.353909 16.8375 0.353909 18.2297V21.0843C0.353909 22.4766 1.38412 23.6124 2.64683 23.6124H24.3532C25.6159 23.6124 26.6461 22.4766 26.6461 21.0843V18.2297C26.6461 16.8375 25.6159 15.7121 24.3532 15.7121H13.8057V10.4242C13.9808 10.3096 14.1019 10.1054 14.1019 9.8659C14.1019 9.50342 13.8311 9.20227 13.5 9.20227ZM26.0346 18.2297C26.0346 17.1993 25.2877 16.3863 24.3532 16.3863H2.64683C1.71228 16.3863 0.965355 17.1993 0.965355 18.2297V21.0843C0.965355 22.1147 1.71228 22.9383 2.64683 22.9383H24.3532C25.2877 22.9383 26.0346 22.1147 26.0346 21.0843V18.2297ZM4.62448 18.2191C3.90386 18.2191 3.30605 18.8734 3.30605 19.6623C3.30605 20.4512 3.90386 21.1054 4.62448 21.1054C5.34509 21.1054 5.93335 20.4512 5.93335 19.6623C5.93335 18.8734 5.34509 18.2191 4.62448 18.2191ZM5.32191 19.6623C5.32191 19.2364 5.01346 18.9038 4.62448 18.9038C4.23549 18.9038 3.92705 19.2364 3.92705 19.6623C3.92705 20.0881 4.23549 20.4312 4.62448 20.4312C5.01346 20.4312 5.32191 20.0881 5.32191 19.6623Z" fill="white"/>
<path d="M3.86972 4.7149L4.12921 4.95562L4.13102 4.95364L3.86972 4.7149ZM3.78684 5.04133L3.44208 5.12141L3.44208 5.12141L3.78684 5.04133ZM4.29965 5.19945L4.55927 5.44002L4.56094 5.43819L4.29965 5.19945ZM22.7004 5.19945L22.4391 5.43819L22.4407 5.44001L22.7004 5.19945ZM22.9982 5.28365L22.8939 4.94543L22.8939 4.94543L22.9982 5.28365ZM23.1303 4.7149L22.869 4.95364L22.8708 4.95561L23.1303 4.7149ZM6.5448 6.63204L6.80429 6.87275L6.80609 6.87078L6.5448 6.63204ZM6.46191 6.95847L6.80667 6.87839V6.87839L6.46191 6.95847ZM6.67691 7.20079L6.7812 6.86257H6.7812L6.67691 7.20079ZM6.97472 7.11659L7.23434 7.35716L7.23602 7.35533L6.97472 7.11659ZM20.0253 7.11659L19.764 7.35533L19.7657 7.35715L20.0253 7.11659ZM20.5381 6.95847L20.1933 6.87839V6.87839L20.5381 6.95847ZM20.4552 6.63204L20.1939 6.87078L20.1957 6.87275L20.4552 6.63204ZM9.32497 8.67558L9.06365 8.43682L9.06029 8.44061L9.32497 8.67558ZM17.675 8.67558L17.9397 8.44059L17.9363 8.43685L17.675 8.67558ZM17.5316 9.24099L17.6278 9.58161L17.6278 9.5816L17.5316 9.24099ZM17.2356 9.1496L17.5004 8.91475L17.4968 8.91087L17.2356 9.1496ZM9.76445 9.1496L9.50312 8.91084L9.49963 8.91478L9.76445 9.1496ZM9.46838 9.24099L9.3722 9.58161H9.3722L9.46838 9.24099ZM13.1943 10.4242H13.5482V10.2328L13.3881 10.1281L13.1943 10.4242ZM13.1943 15.7121V16.066H13.5482V15.7121H13.1943ZM13.8057 15.7121H13.4518V16.066H13.8057V15.7121ZM13.8057 10.4242L13.6119 10.1281L13.4518 10.2328V10.4242H13.8057ZM4.13102 4.95364C6.72377 2.11589 10.1136 0.707873 13.5 0.707873V6.17813e-06C9.91284 6.17813e-06 6.33398 1.49307 3.60843 4.47617L4.13102 4.95364ZM4.13159 4.96125C4.13096 4.95855 4.13103 4.95544 4.13165 4.95298C4.13229 4.95049 4.13259 4.95195 4.1292 4.95561L3.61025 4.47419C3.44778 4.64933 3.38961 4.8955 3.44208 5.12141L4.13159 4.96125ZM4.10612 4.94543C4.11911 4.94943 4.12656 4.95589 4.12963 4.95935C4.13262 4.96272 4.13219 4.96386 4.13159 4.96125L3.44208 5.12141C3.49479 5.34833 3.65904 5.54833 3.89754 5.62187L4.10612 4.94543ZM4.04003 4.95889C4.04373 4.9549 4.05173 4.94863 4.06469 4.94497C4.07787 4.94124 4.09271 4.94129 4.10612 4.94543L3.89754 5.62187C4.14034 5.69673 4.39341 5.619 4.55926 5.44001L4.04003 4.95889ZM22.9616 4.96072C17.7375 -0.75705 9.26247 -0.75705 4.03835 4.96072L4.56094 5.43819C9.50439 0.0276157 17.4956 0.0276159 22.4391 5.43819L22.9616 4.96072ZM22.8939 4.94543C22.9073 4.94129 22.9221 4.94124 22.9353 4.94497C22.9483 4.94863 22.9563 4.9549 22.96 4.95889L22.4407 5.44001C22.6066 5.619 22.8597 5.69673 23.1025 5.62187L22.8939 4.94543ZM22.8684 4.96125C22.8678 4.96386 22.8674 4.96272 22.8704 4.95935C22.8734 4.95589 22.8809 4.94943 22.8939 4.94543L23.1025 5.62187C23.341 5.54833 23.5052 5.34833 23.5579 5.12141L22.8684 4.96125ZM22.8708 4.95561C22.8674 4.95195 22.8677 4.95049 22.8683 4.95298C22.869 4.95544 22.869 4.95855 22.8684 4.96125L23.5579 5.12141C23.6104 4.8955 23.5522 4.64933 23.3898 4.47419L22.8708 4.95561ZM13.5 0.707873C16.8864 0.707873 20.2762 2.11589 22.869 4.95364L23.3916 4.47617C20.666 1.49307 17.0872 6.17813e-06 13.5 6.17813e-06V0.707873ZM6.80609 6.87078C8.65962 4.8421 11.0825 3.83639 13.5 3.83639V3.12852C10.8817 3.12852 8.26982 4.2193 6.28351 6.39331L6.80609 6.87078ZM6.80667 6.87839C6.80604 6.87569 6.8061 6.87258 6.80673 6.87012C6.80736 6.86762 6.80767 6.86909 6.80428 6.87275L6.28532 6.39133C6.12286 6.56647 6.06468 6.81264 6.11716 7.03855L6.80667 6.87839ZM6.7812 6.86257C6.79419 6.86657 6.80163 6.87303 6.80471 6.87649C6.80769 6.87986 6.80727 6.88099 6.80667 6.87839L6.11716 7.03855C6.16986 7.26546 6.33411 7.46546 6.57262 7.53901L6.7812 6.86257ZM6.71511 6.87603C6.71881 6.87204 6.72681 6.86577 6.73976 6.86211C6.75295 6.85838 6.76779 6.85843 6.7812 6.86257L6.57262 7.53901C6.81542 7.61387 7.06849 7.53614 7.23434 7.35715L6.71511 6.87603ZM20.2866 6.87786C16.5409 2.77825 10.4591 2.77825 6.71343 6.87786L7.23602 7.35533C10.701 3.56292 16.299 3.56292 19.764 7.35533L20.2866 6.87786ZM20.2188 6.86257C20.2322 6.85843 20.2471 6.85838 20.2602 6.86211C20.2732 6.86577 20.2812 6.87204 20.2849 6.87603L19.7657 7.35715C19.9315 7.53614 20.1846 7.61387 20.4274 7.53901L20.2188 6.86257ZM20.1933 6.87839C20.1927 6.88099 20.1923 6.87986 20.1953 6.87649C20.1984 6.87303 20.2058 6.86657 20.2188 6.86257L20.4274 7.53901C20.6659 7.46546 20.8301 7.26546 20.8828 7.03855L20.1933 6.87839ZM20.1957 6.87275C20.1923 6.86909 20.1926 6.86762 20.1933 6.87012C20.1939 6.87258 20.194 6.87569 20.1933 6.87839L20.8828 7.03856C20.9353 6.81264 20.8771 6.56647 20.7147 6.39133L20.1957 6.87275ZM13.5 3.83639C15.9175 3.83639 18.3404 4.8421 20.1939 6.87078L20.7165 6.39331C18.7302 4.2193 16.1183 3.12852 13.5 3.12852V3.83639ZM13.5 6.42558C11.8889 6.42558 10.2803 7.10522 9.06368 8.43685L9.58626 8.91432C10.6713 7.72675 12.0913 7.13345 13.5 7.13345V6.42558ZM17.9363 8.43685C16.7197 7.10522 15.1111 6.42558 13.5 6.42558V7.13345C14.9087 7.13345 16.3287 7.72675 17.4137 8.91432L17.9363 8.43685ZM18.0945 9.09096C18.1515 8.86602 18.098 8.61895 17.9397 8.44061L17.4103 8.91056C17.4073 8.90713 17.4078 8.90598 17.4084 8.90865C17.409 8.9113 17.409 8.91441 17.4083 8.91693L18.0945 9.09096ZM17.6278 9.5816C17.8684 9.51366 18.0371 9.317 18.0945 9.09096L17.4083 8.91693C17.4077 8.91934 17.4074 8.9179 17.4108 8.9143C17.4142 8.91061 17.4221 8.90414 17.4354 8.90038L17.6278 9.5816ZM16.9707 9.38443C17.1323 9.56657 17.3831 9.65069 17.6278 9.58161L17.4354 8.90038C17.4492 8.8965 17.464 8.89688 17.4769 8.90085C17.4895 8.90475 17.497 8.91102 17.5004 8.91478L16.9707 9.38443ZM10.0257 9.38834C11.9526 7.27941 15.0474 7.27941 16.9743 9.38834L17.4968 8.91087C15.2893 6.49475 11.7107 6.49475 9.50315 8.91087L10.0257 9.38834ZM9.3722 9.58161C9.61687 9.65069 9.86775 9.56656 10.0293 9.38443L9.49963 8.91478C9.50296 8.91102 9.5105 8.90475 9.52313 8.90085C9.53599 8.89688 9.55083 8.8965 9.56456 8.90038L9.3722 9.58161ZM8.90554 9.09096C8.96287 9.31701 9.13158 9.51366 9.3722 9.58161L9.56456 8.90038C9.57789 8.90414 9.5858 8.91061 9.58923 8.9143C9.59256 8.9179 9.59229 8.91934 9.59168 8.91693L8.90554 9.09096ZM9.06029 8.44061C8.90197 8.61895 8.84848 8.86603 8.90554 9.09096L9.59168 8.91693C9.59104 8.91441 9.591 8.9113 9.59162 8.90865C9.59224 8.90598 9.59269 8.90713 9.58965 8.91056L9.06029 8.44061ZM13.252 9.8659C13.252 9.66465 13.3969 9.5562 13.5 9.5562V8.84834C12.9408 8.84834 12.5442 9.34219 12.5442 9.8659H13.252ZM13.3881 10.1281C13.3106 10.0773 13.252 9.98328 13.252 9.8659H12.5442C12.5442 10.2276 12.7278 10.5418 13.0004 10.7203L13.3881 10.1281ZM13.5482 15.7121V10.4242H12.8403V15.7121H13.5482ZM2.64683 16.066H13.1943V15.3582H2.64683V16.066ZM0.707842 18.2297C0.707842 17.0016 1.60949 16.066 2.64683 16.066V15.3582C1.15874 15.3582 -2.46824e-05 16.6733 -2.46824e-05 18.2297H0.707842ZM0.707842 21.0843V18.2297H-2.46824e-05V21.0843H0.707842ZM2.64683 23.2585C1.61131 23.2585 0.707842 22.3144 0.707842 21.0843H-2.46824e-05C-2.46824e-05 22.6387 1.15692 23.9663 2.64683 23.9663V23.2585ZM24.3532 23.2585H2.64683V23.9663H24.3532V23.2585ZM26.2922 21.0843C26.2922 22.3144 25.3887 23.2585 24.3532 23.2585V23.9663C25.8431 23.9663 27 22.6387 27 21.0843H26.2922ZM26.2922 18.2297V21.0843H27V18.2297H26.2922ZM24.3532 16.066C25.3905 16.066 26.2922 17.0016 26.2922 18.2297H27C27 16.6733 25.8413 15.3582 24.3532 15.3582V16.066ZM13.8057 16.066H24.3532V15.3582H13.8057V16.066ZM13.4518 10.4242V15.7121H14.1597V10.4242H13.4518ZM13.748 9.8659C13.748 9.98328 13.6894 10.0773 13.6119 10.1281L13.9996 10.7203C14.2722 10.5418 14.4558 10.2276 14.4558 9.8659H13.748ZM13.5 9.5562C13.6031 9.5562 13.748 9.66465 13.748 9.8659H14.4558C14.4558 9.34219 14.0592 8.84834 13.5 8.84834V9.5562ZM24.3532 16.7402C25.063 16.7402 25.6807 17.3642 25.6807 18.2297H26.3886C26.3886 17.0344 25.5124 16.0323 24.3532 16.0323V16.7402ZM2.64683 16.7402H24.3532V16.0323H2.64683V16.7402ZM1.31929 18.2297C1.31929 17.3642 1.93698 16.7402 2.64683 16.7402V16.0323C1.48758 16.0323 0.611421 17.0344 0.611421 18.2297H1.31929ZM1.31929 21.0843V18.2297H0.611421V21.0843H1.31929ZM2.64683 22.5843C1.93947 22.5843 1.31929 21.9526 1.31929 21.0843H0.611421C0.611421 22.2769 1.48509 23.2922 2.64683 23.2922V22.5843ZM24.3532 22.5843H2.64683V23.2922H24.3532V22.5843ZM25.6807 21.0843C25.6807 21.9526 25.0605 22.5843 24.3532 22.5843V23.2922C25.5149 23.2922 26.3886 22.2769 26.3886 21.0843H25.6807ZM25.6807 18.2297V21.0843H26.3886V18.2297H25.6807ZM3.65998 19.6623C3.65998 19.0381 4.12874 18.5731 4.62448 18.5731V17.8652C3.67898 17.8652 2.95211 18.7087 2.95211 19.6623H3.65998ZM4.62448 20.7514C4.12874 20.7514 3.65998 20.2864 3.65998 19.6623H2.95211C2.95211 20.6159 3.67898 21.4593 4.62448 21.4593V20.7514ZM5.57942 19.6623C5.57942 20.2899 5.11705 20.7514 4.62448 20.7514V21.4593C5.57314 21.4593 6.28729 20.6124 6.28729 19.6623H5.57942ZM4.62448 18.5731C5.11705 18.5731 5.57942 19.0346 5.57942 19.6623H6.28729C6.28729 18.7122 5.57314 17.8652 4.62448 17.8652V18.5731ZM4.62448 19.2578C4.79146 19.2578 4.96798 19.4043 4.96798 19.6623H5.67584C5.67584 19.0686 5.23547 18.5499 4.62448 18.5499V19.2578ZM4.28098 19.6623C4.28098 19.4043 4.45749 19.2578 4.62448 19.2578V18.5499C4.01349 18.5499 3.57311 19.0686 3.57311 19.6623H4.28098ZM4.62448 20.0773C4.46355 20.0773 4.28098 19.9269 4.28098 19.6623H3.57311C3.57311 20.2493 4.00743 20.7852 4.62448 20.7852V20.0773ZM4.96798 19.6623C4.96798 19.9269 4.7854 20.0773 4.62448 20.0773V20.7852C5.24153 20.7852 5.67584 20.2493 5.67584 19.6623H4.96798Z" fill="white"/>
</svg>
