<svg width="18" height="29" viewBox="0 0 18 29" fill="none" xmlns="http://www.w3.org/2000/svg">
<path fill-rule="evenodd" clip-rule="evenodd" d="M0.713373 11.2739H17.2866C17.4907 11.2739 17.6511 11.1135 17.6511 10.9095V2.11265C17.6511 1.14333 16.8566 0.348919 15.8873 0.348919H2.1127C1.14337 0.348919 0.348965 1.14333 0.348965 2.11265V10.9095C0.348965 11.1135 0.509304 11.2739 0.713373 11.2739ZM16.9222 10.5451H1.07778V2.11265C1.07778 1.54418 1.54422 1.07773 2.1127 1.07773H15.8873C16.4558 1.07773 16.9222 1.54418 16.9222 2.11265V10.5451Z" fill="white"/>
<path d="M1.07778 10.5451H0.72886V10.894H1.07778V10.5451ZM16.9222 10.5451V10.894H17.2712V10.5451H16.9222ZM17.2866 10.925H0.713373V11.6228H17.2866V10.925ZM17.3021 10.9095C17.3021 10.9144 17.3012 10.9171 17.3007 10.9183C17.3002 10.9197 17.2994 10.9207 17.2987 10.9215C17.2979 10.9222 17.2969 10.923 17.2955 10.9235C17.2943 10.9241 17.2916 10.925 17.2866 10.925V11.6228C17.6834 11.6228 18 11.3062 18 10.9095H17.3021ZM17.3021 2.11265V10.9095H18V2.11265H17.3021ZM15.8873 0.697839C16.6639 0.697839 17.3021 1.33603 17.3021 2.11265H18C18 0.950624 17.0494 -2.09548e-06 15.8873 -2.09548e-06V0.697839ZM2.1127 0.697839H15.8873V-2.09548e-06H2.1127V0.697839ZM0.697885 2.11265C0.697885 1.33603 1.33608 0.697839 2.1127 0.697839V-2.09548e-06C0.950671 -2.09548e-06 4.38854e-05 0.950625 4.38854e-05 2.11265H0.697885ZM0.697885 10.9095V2.11265H4.38854e-05V10.9095H0.697885ZM0.713373 10.925C0.708422 10.925 0.705749 10.9241 0.704543 10.9235C0.703154 10.923 0.702145 10.9222 0.701367 10.9215C0.70059 10.9207 0.699866 10.9197 0.699287 10.9183C0.698784 10.9171 0.697885 10.9144 0.697885 10.9095H4.38854e-05C4.38854e-05 11.3062 0.3166 11.6228 0.713373 11.6228V10.925ZM1.07778 10.894H16.9222V10.1961H1.07778V10.894ZM0.72886 2.11265V10.5451H1.4267V2.11265H0.72886ZM2.1127 0.728814C1.35152 0.728814 0.72886 1.35147 0.72886 2.11265H1.4267C1.4267 1.73688 1.73693 1.42666 2.1127 1.42666V0.728814ZM15.8873 0.728814H2.1127V1.42666H15.8873V0.728814ZM17.2712 2.11265C17.2712 1.35147 16.6485 0.728814 15.8873 0.728814V1.42666C16.2631 1.42666 16.5733 1.73688 16.5733 2.11265H17.2712ZM17.2712 10.5451V2.11265H16.5733V10.5451H17.2712Z" fill="white"/>
<path fill-rule="evenodd" clip-rule="evenodd" d="M0.713373 10.3936H17.2866C17.4907 10.3936 17.6511 10.554 17.6511 10.758V26.3328C17.6511 27.3021 16.8566 28.0966 15.8873 28.0966H2.1127C1.14337 28.0966 0.348965 27.3021 0.348965 26.3328V10.758C0.348965 10.554 0.509304 10.3936 0.713373 10.3936ZM16.9222 11.1224H1.07778V26.3328C1.07778 26.9013 1.54422 27.3677 2.1127 27.3677H15.8873C16.4558 27.3677 16.9222 26.9013 16.9222 26.3328V11.1224Z" fill="white"/>
<path d="M1.07778 11.1224H0.72886V10.7735H1.07778V11.1224ZM16.9222 11.1224V10.7735H17.2712V11.1224H16.9222ZM17.2866 10.7425H0.713373V10.0447H17.2866V10.7425ZM17.3021 10.758C17.3021 10.7531 17.3012 10.7504 17.3007 10.7492C17.3002 10.7478 17.2994 10.7468 17.2987 10.746C17.2979 10.7452 17.2969 10.7445 17.2955 10.7439C17.2943 10.7434 17.2916 10.7425 17.2866 10.7425V10.0447C17.6834 10.0447 18 10.3612 18 10.758H17.3021ZM17.3021 26.3328V10.758H18V26.3328H17.3021ZM15.8873 27.7476C16.6639 27.7476 17.3021 27.1094 17.3021 26.3328H18C18 27.4948 17.0494 28.4455 15.8873 28.4455V27.7476ZM2.1127 27.7476H15.8873V28.4455H2.1127V27.7476ZM0.697885 26.3328C0.697885 27.1094 1.33608 27.7476 2.1127 27.7476V28.4455C0.950671 28.4455 4.38854e-05 27.4948 4.38854e-05 26.3328H0.697885ZM0.697885 10.758V26.3328H4.38854e-05V10.758H0.697885ZM0.713373 10.7425C0.708422 10.7425 0.705749 10.7434 0.704543 10.7439C0.703153 10.7445 0.702145 10.7452 0.701367 10.746C0.700589 10.7468 0.699866 10.7478 0.699287 10.7492C0.698784 10.7504 0.697885 10.7531 0.697885 10.758H4.38854e-05C4.38854e-05 10.3612 0.3166 10.0447 0.713373 10.0447V10.7425ZM1.07778 10.7735H16.9222V11.4713H1.07778V10.7735ZM0.72886 26.3328V11.1224H1.4267V26.3328H0.72886ZM2.1127 27.7167C1.35152 27.7167 0.72886 27.094 0.72886 26.3328H1.4267C1.4267 26.7086 1.73693 27.0188 2.1127 27.0188V27.7167ZM15.8873 27.7167H2.1127V27.0188H15.8873V27.7167ZM17.2712 26.3328C17.2712 27.094 16.6485 27.7167 15.8873 27.7167V27.0188C16.2631 27.0188 16.5733 26.7086 16.5733 26.3328H17.2712ZM17.2712 11.1224V26.3328H16.5733V11.1224H17.2712Z" fill="white"/>
<path d="M4.03678 8.19108H3.83271C3.32983 8.19108 2.92169 7.78294 2.92169 7.28006V5.138C2.92169 4.63512 3.32983 4.22698 3.83271 4.22698H4.03678C4.53966 4.22698 4.9478 4.63512 4.9478 5.138V7.28006C4.9478 7.78294 4.53966 8.19108 4.03678 8.19108Z" fill="white"/>
<path d="M4.03678 18.847H3.83271C3.32983 18.847 2.92169 18.4389 2.92169 17.936V14.4019C2.92169 13.899 3.32983 13.4909 3.83271 13.4909H4.03678C4.53966 13.4909 4.9478 13.899 4.9478 14.4019V17.936C4.9478 18.4389 4.53966 18.847 4.03678 18.847Z" fill="white"/>
</svg>
