<svg width="25" height="25" viewBox="0 0 25 25" fill="none" xmlns="http://www.w3.org/2000/svg">
<path fill-rule="evenodd" clip-rule="evenodd" d="M21.1914 9.76562H23.4375C24.1211 9.76562 24.707 10.3516 24.707 11.0352V13.9648C24.707 14.6484 24.1211 15.2344 23.4375 15.2344H21.1914C20.8984 15.2344 20.5078 15.5273 20.4101 15.8203C20.3125 16.2109 20.3125 16.5039 20.6054 16.7969L22.2656 18.457C22.5586 18.6523 22.6562 19.043 22.6562 19.3359C22.6562 19.6289 22.4609 20.0195 22.2656 20.2148L20.2148 22.2656C19.7265 22.7539 18.9453 22.7539 18.457 22.2656L16.7968 20.6055C16.5039 20.3125 16.1132 20.3125 15.8203 20.4102C15.4297 20.5078 15.2343 20.8008 15.2343 21.1914V23.4375C15.2343 24.1211 14.6484 24.707 13.9648 24.707H11.0351C10.3515 24.707 9.76559 24.1211 9.76559 23.4375V21.1914C9.76559 20.8984 9.47262 20.5078 9.17965 20.4102C8.78903 20.3125 8.49606 20.3125 8.20309 20.6055L6.54293 22.2656C6.05465 22.7539 5.2734 22.7539 4.78512 22.2656L2.73434 20.2148C2.44137 20.0195 2.34371 19.6289 2.34371 19.3359C2.34371 19.043 2.53903 18.6523 2.73434 18.457L4.39449 16.7969C4.68746 16.5039 4.68746 16.1133 4.58981 15.8203C4.49215 15.4297 4.19918 15.2344 3.80856 15.2344H1.56246C0.87887 15.2344 0.292932 14.6484 0.292932 13.9648V11.0352C0.292932 10.3516 0.87887 9.76562 1.56246 9.76562H3.80856C4.10153 9.76562 4.49215 9.47266 4.58981 9.17969C4.68746 8.78906 4.68746 8.49609 4.39449 8.20312L2.73434 6.54297C2.44137 6.34765 2.34371 5.95703 2.34371 5.66406C2.34371 5.37109 2.53903 4.98047 2.73434 4.78515L4.78512 2.73437C5.2734 2.24609 6.05465 2.24609 6.54293 2.73437L8.20309 4.39453C8.49606 4.6875 8.88668 4.6875 9.17965 4.58984C9.57028 4.49219 9.76559 4.19922 9.76559 3.80859V1.5625C9.76559 0.878905 10.3515 0.292967 11.0351 0.292967H13.9648C14.6484 0.292967 15.2343 0.878905 15.2343 1.5625V3.80859C15.2343 4.10156 15.5273 4.49219 15.8203 4.58984C16.2109 4.6875 16.5039 4.6875 16.7968 4.39453L18.457 2.73437C18.9453 2.24609 19.7265 2.24609 20.2148 2.73437L22.2656 4.78515C22.5586 4.98047 22.6562 5.37109 22.6562 5.66406C22.6562 5.95703 22.4609 6.34765 22.2656 6.54297L20.6054 8.20312C20.3125 8.49609 20.3125 8.88672 20.4101 9.17969C20.5078 9.57031 20.8007 9.76562 21.1914 9.76562ZM23.4375 14.3555C23.6328 14.3555 23.8281 14.1602 23.8281 13.9648V11.0352C23.8281 10.8398 23.6328 10.6445 23.4375 10.6445H21.1914C20.4101 10.6445 19.8242 10.2539 19.5312 9.57031C19.2382 8.88672 19.4336 8.10547 19.9218 7.61719L21.582 5.95703C21.6797 5.85937 21.6797 5.5664 21.582 5.46875L19.5312 3.41797C19.4336 3.32031 19.1406 3.32031 19.0429 3.41797L17.3828 5.07812C16.8945 5.5664 16.1132 5.76172 15.4297 5.46875C14.7461 5.17578 14.3554 4.58984 14.3554 3.80859V1.5625C14.3554 1.36719 14.1601 1.17187 13.9648 1.17187H11.0351C10.8398 1.17187 10.6445 1.36719 10.6445 1.5625V3.80859C10.6445 4.58984 10.2539 5.17578 9.57028 5.46875C8.88668 5.76172 8.10543 5.5664 7.61715 5.07812L5.95699 3.41797C5.85934 3.32031 5.56637 3.32031 5.46871 3.41797L3.41793 5.46875C3.32028 5.5664 3.32028 5.85937 3.41793 5.95703L5.07809 7.61719C5.56637 8.10547 5.76168 8.88672 5.46871 9.57031C5.17575 10.2539 4.58981 10.6445 3.80856 10.6445H1.56246C1.36715 10.6445 1.17184 10.8398 1.17184 11.0352V13.9648C1.17184 14.1602 1.36715 14.3555 1.56246 14.3555H3.80856C4.58981 14.3555 5.17575 14.7461 5.46871 15.4297C5.76168 16.1133 5.56637 16.8945 5.07809 17.3828L3.41793 19.043C3.32028 19.1406 3.32028 19.4336 3.41793 19.5313L5.46871 21.582C5.56637 21.6797 5.85934 21.6797 5.95699 21.582L7.61715 19.9219C8.00778 19.6289 8.3984 19.4336 8.88668 19.4336C9.082 19.4336 9.37496 19.4336 9.57028 19.5313C10.2539 19.8242 10.6445 20.4102 10.6445 21.1914V23.4375C10.6445 23.6328 10.8398 23.8281 11.0351 23.8281H13.9648C14.1601 23.8281 14.3554 23.6328 14.3554 23.4375V21.1914C14.3554 20.4102 14.7461 19.8242 15.4297 19.5313C16.1132 19.2383 16.8945 19.4336 17.3828 19.9219L19.0429 21.582C19.1406 21.6797 19.4336 21.6797 19.5312 21.582L21.582 19.5313C21.6797 19.4336 21.6797 19.1406 21.582 19.043L19.9218 17.3828C19.4336 16.8945 19.2382 16.1133 19.5312 15.4297C19.8242 14.7461 20.4101 14.3555 21.1914 14.3555H23.4375Z" fill="#242424"/>
<path d="M20.4101 15.8203L20.1322 15.7277L20.1286 15.7383L20.1259 15.7493L20.4101 15.8203ZM22.2656 18.457L22.0584 18.6642L22.0789 18.6847L22.1031 18.7008L22.2656 18.457ZM15.8203 20.4102L15.8913 20.6944L15.9022 20.6916L15.9129 20.6881L15.8203 20.4102ZM9.17965 20.4102L9.2723 20.1322L9.26162 20.1287L9.25071 20.1259L9.17965 20.4102ZM6.54293 22.2656L6.75009 22.4728L6.54293 22.2656ZM4.78512 22.2656L4.57796 22.4728L4.78512 22.2656ZM2.73434 20.2148L2.9415 20.0077L2.92099 19.9872L2.89685 19.9711L2.73434 20.2148ZM2.73434 18.457L2.9415 18.6642H2.9415L2.73434 18.457ZM4.58981 15.8203L4.30559 15.8914L4.30831 15.9023L4.31187 15.913L4.58981 15.8203ZM4.58981 9.17969L4.86774 9.27233L4.8713 9.26166L4.87403 9.25074L4.58981 9.17969ZM2.73434 6.54297L2.9415 6.33581L2.92099 6.31529L2.89685 6.2992L2.73434 6.54297ZM9.17965 4.58984L9.1086 4.30562L9.09768 4.30835L9.08701 4.31191L9.17965 4.58984ZM15.8203 4.58984L15.7276 4.86778L15.7383 4.87133L15.7492 4.87406L15.8203 4.58984ZM18.457 2.73437L18.6642 2.94153L18.457 2.73437ZM20.2148 2.73437L20.0076 2.94153V2.94153L20.2148 2.73437ZM22.2656 4.78515L22.0584 4.99231L22.0789 5.01283L22.1031 5.02892L22.2656 4.78515ZM22.2656 6.54297L22.4728 6.75013L22.2656 6.54297ZM20.4101 9.17969L20.6943 9.10863L20.6916 9.09772L20.6881 9.08704L20.4101 9.17969ZM19.9218 7.61719L19.7147 7.41003L19.9218 7.61719ZM21.582 5.95703L21.7892 6.16419V6.16419L21.582 5.95703ZM21.582 5.46875L21.7892 5.26159V5.26159L21.582 5.46875ZM19.5312 3.41797L19.7384 3.21081L19.7384 3.21081L19.5312 3.41797ZM19.0429 3.41797L19.2501 3.62513L19.2501 3.62513L19.0429 3.41797ZM17.3828 5.07812L17.1756 4.87096H17.1756L17.3828 5.07812ZM15.4297 5.46875L15.5451 5.19947L15.4297 5.46875ZM9.57028 5.46875L9.45487 5.19947L9.57028 5.46875ZM5.95699 3.41797L5.74983 3.62513L5.74983 3.62513L5.95699 3.41797ZM5.46871 3.41797L5.26155 3.21081V3.21081L5.46871 3.41797ZM3.41793 5.46875L3.21077 5.26159H3.21077L3.41793 5.46875ZM3.41793 5.95703L3.62509 5.74987L3.62509 5.74987L3.41793 5.95703ZM5.46871 9.57031L5.19943 9.4549L5.46871 9.57031ZM5.46871 15.4297L5.19943 15.5451L5.46871 15.4297ZM5.07809 17.3828L4.87093 17.1757V17.1757L5.07809 17.3828ZM3.41793 19.043L3.62509 19.2501L3.62509 19.2501L3.41793 19.043ZM3.41793 19.5313L3.21077 19.7384L3.21077 19.7384L3.41793 19.5313ZM5.46871 21.582L5.26155 21.7892H5.26155L5.46871 21.582ZM5.95699 21.582L6.16415 21.7892H6.16415L5.95699 21.582ZM7.61715 19.9219L7.44137 19.6875L7.42471 19.7L7.40999 19.7147L7.61715 19.9219ZM9.57028 19.5313L9.43926 19.7933L9.44696 19.7971L9.45487 19.8005L9.57028 19.5313ZM17.3828 19.9219L17.1756 20.129H17.1756L17.3828 19.9219ZM19.0429 21.582L19.2501 21.3749H19.2501L19.0429 21.582ZM19.5312 21.582L19.7384 21.7892L19.7384 21.7892L19.5312 21.582ZM21.582 19.5313L21.7892 19.7384L21.7892 19.7384L21.582 19.5313ZM21.582 19.043L21.3748 19.2501V19.2501L21.582 19.043ZM19.9218 17.3828L20.129 17.1757V17.1757L19.9218 17.3828ZM23.4375 9.47266H21.1914V10.0586H23.4375V9.47266ZM25 11.0352C25 10.1898 24.2829 9.47266 23.4375 9.47266V10.0586C23.9593 10.0586 24.414 10.5134 24.414 11.0352H25ZM25 13.9648V11.0352H24.414V13.9648H25ZM23.4375 15.5273C24.2829 15.5273 25 14.8102 25 13.9648H24.414C24.414 14.4866 23.9593 14.9414 23.4375 14.9414V15.5273ZM21.1914 15.5273H23.4375V14.9414H21.1914V15.5273ZM20.6881 15.913C20.7121 15.8409 20.7867 15.7393 20.9033 15.6519C21.0214 15.5633 21.1314 15.5273 21.1914 15.5273V14.9414C20.9583 14.9414 20.7266 15.052 20.5517 15.1831C20.3753 15.3154 20.2058 15.5067 20.1322 15.7277L20.6881 15.913ZM20.8126 16.5897C20.7045 16.4817 20.6647 16.3903 20.6509 16.3007C20.6354 16.2002 20.6485 16.0749 20.6943 15.8914L20.1259 15.7493C20.0741 15.9564 20.0384 16.1728 20.0717 16.3898C20.1068 16.6175 20.2134 16.8191 20.3983 17.004L20.8126 16.5897ZM22.4728 18.2499L20.8126 16.5897L20.3983 17.004L22.0584 18.6642L22.4728 18.2499ZM22.9492 19.3359C22.9492 19.0063 22.8429 18.4898 22.4281 18.2133L22.1031 18.7008C22.2742 18.8149 22.3632 19.0796 22.3632 19.3359H22.9492ZM22.4728 20.422C22.6004 20.2944 22.7161 20.1169 22.8001 19.9348C22.8834 19.7543 22.9492 19.54 22.9492 19.3359H22.3632C22.3632 19.4248 22.3313 19.5523 22.2681 19.6892C22.2057 19.8245 22.1261 19.94 22.0584 20.0077L22.4728 20.422ZM20.422 22.4728L22.4728 20.422L22.0584 20.0077L20.0076 22.0585L20.422 22.4728ZM18.2498 22.4728C18.8525 23.0755 19.8193 23.0755 20.422 22.4728L20.0076 22.0585C19.6338 22.4323 19.038 22.4323 18.6642 22.0585L18.2498 22.4728ZM16.5897 20.8126L18.2498 22.4728L18.6642 22.0585L17.004 20.3983L16.5897 20.8126ZM15.9129 20.6881C16.1426 20.6115 16.4022 20.6252 16.5897 20.8126L17.004 20.3983C16.6055 19.9998 16.0839 20.0135 15.7276 20.1322L15.9129 20.6881ZM15.5273 21.1914C15.5273 21.0445 15.5637 20.9375 15.6178 20.8632C15.6702 20.7911 15.7544 20.7286 15.8913 20.6944L15.7492 20.1259C15.4955 20.1894 15.2868 20.3222 15.1439 20.5186C15.0026 20.7129 14.9414 20.9477 14.9414 21.1914H15.5273ZM15.5273 23.4375V21.1914H14.9414V23.4375H15.5273ZM13.9648 25C14.8102 25 15.5273 24.2829 15.5273 23.4375H14.9414C14.9414 23.9593 14.4866 24.4141 13.9648 24.4141V25ZM11.0351 25H13.9648V24.4141H11.0351V25ZM9.47262 23.4375C9.47262 24.2829 10.1897 25 11.0351 25V24.4141C10.5133 24.4141 10.0586 23.9593 10.0586 23.4375H9.47262ZM9.47262 21.1914V23.4375H10.0586V21.1914H9.47262ZM9.08701 20.6881C9.15904 20.7121 9.26068 20.7868 9.34811 20.9033C9.43669 21.0214 9.47262 21.1315 9.47262 21.1914H10.0586C10.0586 20.9584 9.948 20.7266 9.81686 20.5518C9.68456 20.3754 9.49324 20.2059 9.2723 20.1322L9.08701 20.6881ZM8.41025 20.8126C8.5183 20.7046 8.60962 20.6647 8.6993 20.6509C8.79974 20.6354 8.92509 20.6485 9.1086 20.6944L9.25071 20.1259C9.04359 20.0742 8.82714 20.0384 8.6102 20.0718C8.3825 20.1068 8.18085 20.2134 7.99593 20.3983L8.41025 20.8126ZM6.75009 22.4728L8.41025 20.8126L7.99593 20.3983L6.33577 22.0585L6.75009 22.4728ZM4.57796 22.4728C5.18065 23.0755 6.1474 23.0755 6.75009 22.4728L6.33577 22.0585C5.9619 22.4323 5.36615 22.4323 4.99228 22.0585L4.57796 22.4728ZM2.52718 20.422L4.57796 22.4728L4.99228 22.0585L2.9415 20.0077L2.52718 20.422ZM2.05074 19.3359C2.05074 19.6656 2.15699 20.182 2.57183 20.4586L2.89685 19.9711C2.72575 19.857 2.63668 19.5922 2.63668 19.3359H2.05074ZM2.52718 18.2499C2.39956 18.3775 2.28383 18.555 2.19978 18.7371C2.11649 18.9175 2.05074 19.1319 2.05074 19.3359H2.63668C2.63668 19.247 2.66859 19.1196 2.73179 18.9826C2.79423 18.8474 2.8738 18.7319 2.9415 18.6642L2.52718 18.2499ZM4.18733 16.5897L2.52718 18.2499L2.9415 18.6642L4.60165 17.004L4.18733 16.5897ZM4.31187 15.913C4.38843 16.1426 4.3748 16.4023 4.18733 16.5897L4.60165 17.004C5.00013 16.6056 4.9865 16.0839 4.86774 15.7277L4.31187 15.913ZM3.80856 15.5273C3.95543 15.5273 4.06242 15.5638 4.13673 15.6178C4.20884 15.6702 4.27136 15.7545 4.30559 15.8914L4.87403 15.7493C4.8106 15.4955 4.6778 15.2868 4.48136 15.1439C4.28711 15.0027 4.05231 14.9414 3.80856 14.9414V15.5273ZM1.56246 15.5273H3.80856V14.9414H1.56246V15.5273ZM-3.67436e-05 13.9648C-3.67436e-05 14.8102 0.717067 15.5273 1.56246 15.5273V14.9414C1.04067 14.9414 0.585901 14.4866 0.585901 13.9648H-3.67436e-05ZM-3.67436e-05 11.0352V13.9648H0.585901V11.0352H-3.67436e-05ZM1.56246 9.47266C0.717067 9.47266 -3.67436e-05 10.1898 -3.67436e-05 11.0352H0.585901C0.585901 10.5134 1.04067 10.0586 1.56246 10.0586V9.47266ZM3.80856 9.47266H1.56246V10.0586H3.80856V9.47266ZM4.31187 9.08704C4.28786 9.15907 4.21321 9.26072 4.09664 9.34814C3.97854 9.43672 3.86849 9.47266 3.80856 9.47266V10.0586C4.04159 10.0586 4.27334 9.94804 4.44821 9.81689C4.62461 9.68459 4.7941 9.49327 4.86774 9.27233L4.31187 9.08704ZM4.18733 8.41028C4.29538 8.51833 4.33528 8.60965 4.34907 8.69933C4.36453 8.79978 4.35146 8.92512 4.30559 9.10863L4.87403 9.25074C4.92581 9.04362 4.96157 8.82718 4.9282 8.61024C4.89317 8.38253 4.78658 8.18089 4.60165 7.99596L4.18733 8.41028ZM2.52718 6.75013L4.18733 8.41028L4.60165 7.99596L2.9415 6.33581L2.52718 6.75013ZM2.05074 5.66406C2.05074 5.99371 2.15699 6.51017 2.57183 6.78673L2.89685 6.2992C2.72575 6.18514 2.63668 5.92035 2.63668 5.66406H2.05074ZM2.52718 4.57799C2.39956 4.70561 2.28383 4.88311 2.19978 5.06522C2.11649 5.24567 2.05074 5.45998 2.05074 5.66406H2.63668C2.63668 5.57517 2.66859 5.44768 2.73179 5.31076C2.79423 5.17548 2.8738 5.06001 2.9415 4.99231L2.52718 4.57799ZM4.57796 2.52721L2.52718 4.57799L2.9415 4.99231L4.99228 2.94153L4.57796 2.52721ZM6.75009 2.52721C6.1474 1.92452 5.18065 1.92452 4.57796 2.52721L4.99228 2.94153C5.36615 2.56766 5.9619 2.56766 6.33577 2.94153L6.75009 2.52721ZM8.41025 4.18737L6.75009 2.52721L6.33577 2.94153L7.99593 4.60169L8.41025 4.18737ZM9.08701 4.31191C8.85734 4.38846 8.59771 4.37483 8.41025 4.18737L7.99593 4.60169C8.3944 5.00016 8.91603 4.98653 9.2723 4.86778L9.08701 4.31191ZM9.47262 3.80859C9.47262 3.95546 9.43621 4.06246 9.38217 4.13676C9.32973 4.20888 9.2455 4.27139 9.1086 4.30562L9.25071 4.87406C9.50443 4.81063 9.71317 4.67784 9.85604 4.4814C9.99731 4.28715 10.0586 4.05235 10.0586 3.80859H9.47262ZM9.47262 1.5625V3.80859H10.0586V1.5625H9.47262ZM11.0351 -1.81899e-06C10.1897 -1.81899e-06 9.47262 0.717102 9.47262 1.5625H10.0586C10.0586 1.04071 10.5133 0.585936 11.0351 0.585936V-1.81899e-06ZM13.9648 -1.81899e-06H11.0351V0.585936H13.9648V-1.81899e-06ZM15.5273 1.5625C15.5273 0.717102 14.8102 -1.81899e-06 13.9648 -1.81899e-06V0.585936C14.4866 0.585936 14.9414 1.04071 14.9414 1.5625H15.5273ZM15.5273 3.80859V1.5625H14.9414V3.80859H15.5273ZM15.9129 4.31191C15.8409 4.2879 15.7392 4.21324 15.6518 4.09668C15.5632 3.97857 15.5273 3.86853 15.5273 3.80859H14.9414C14.9414 4.04163 15.0519 4.27338 15.1831 4.44824C15.3154 4.62464 15.5067 4.79413 15.7276 4.86778L15.9129 4.31191ZM16.5897 4.18737C16.4816 4.29542 16.3903 4.33531 16.3006 4.34911C16.2002 4.36456 16.0748 4.3515 15.8913 4.30562L15.7492 4.87406C15.9563 4.92584 16.1728 4.96161 16.3897 4.92823C16.6174 4.8932 16.8191 4.78661 17.004 4.60169L16.5897 4.18737ZM18.2498 2.52721L16.5897 4.18737L17.004 4.60169L18.6642 2.94153L18.2498 2.52721ZM20.422 2.52721C19.8193 1.92452 18.8525 1.92452 18.2498 2.52721L18.6642 2.94153C19.038 2.56766 19.6338 2.56766 20.0076 2.94153L20.422 2.52721ZM22.4728 4.57799L20.422 2.52721L20.0076 2.94153L22.0584 4.99231L22.4728 4.57799ZM22.9492 5.66406C22.9492 5.33441 22.8429 4.81795 22.4281 4.54139L22.1031 5.02892C22.2742 5.14298 22.3632 5.40777 22.3632 5.66406H22.9492ZM22.4728 6.75013C22.6004 6.62251 22.7161 6.44501 22.8001 6.26291C22.8834 6.08245 22.9492 5.86814 22.9492 5.66406H22.3632C22.3632 5.75295 22.3313 5.88044 22.2681 6.01736C22.2057 6.15265 22.1261 6.26811 22.0584 6.33581L22.4728 6.75013ZM20.8126 8.41028L22.4728 6.75013L22.0584 6.33581L20.3983 7.99596L20.8126 8.41028ZM20.6881 9.08704C20.6115 8.85738 20.6251 8.59775 20.8126 8.41028L20.3983 7.99596C19.9998 8.39444 20.0134 8.91606 20.1322 9.27233L20.6881 9.08704ZM21.1914 9.47266C21.0445 9.47266 20.9375 9.43625 20.8632 9.38221C20.7911 9.32976 20.7286 9.24554 20.6943 9.10863L20.1259 9.25074C20.1893 9.50446 20.3221 9.71321 20.5186 9.85607C20.7128 9.99734 20.9476 10.0586 21.1914 10.0586V9.47266ZM23.5351 13.9648C23.5351 13.9648 23.5351 13.9664 23.5343 13.9698C23.5335 13.9733 23.5319 13.9782 23.529 13.9844C23.5231 13.9972 23.513 14.0121 23.4989 14.0262C23.4847 14.0404 23.4698 14.0504 23.457 14.0564C23.4508 14.0593 23.4459 14.0609 23.4425 14.0617C23.4391 14.0625 23.4374 14.0625 23.4375 14.0625V14.6484C23.6304 14.6484 23.7988 14.5549 23.9132 14.4406C24.0275 14.3262 24.1211 14.1578 24.1211 13.9648H23.5351ZM23.5351 11.0352V13.9648H24.1211V11.0352H23.5351ZM23.4375 10.9375C23.4374 10.9375 23.4391 10.9375 23.4425 10.9383C23.4459 10.9391 23.4508 10.9407 23.457 10.9436C23.4698 10.9496 23.4847 10.9596 23.4989 10.9738C23.531 11.0059 23.5351 11.0328 23.5351 11.0352H24.1211C24.1211 10.8422 24.0275 10.6738 23.9132 10.5594C23.7988 10.4451 23.6304 10.3516 23.4375 10.3516V10.9375ZM21.1914 10.9375H23.4375V10.3516H21.1914V10.9375ZM19.2619 9.68572C19.602 10.4792 20.2953 10.9375 21.1914 10.9375V10.3516C20.5249 10.3516 20.0464 10.0286 19.8005 9.4549L19.2619 9.68572ZM19.7147 7.41003C19.1487 7.97596 18.918 8.88312 19.2619 9.68572L19.8005 9.4549C19.5585 8.89032 19.7184 8.23498 20.129 7.82435L19.7147 7.41003ZM21.3748 5.74987L19.7147 7.41003L20.129 7.82435L21.7892 6.16419L21.3748 5.74987ZM21.3748 5.67591C21.3616 5.66268 21.3557 5.65206 21.3543 5.64928C21.3527 5.64622 21.3535 5.64705 21.3552 5.65299C21.3588 5.6656 21.3623 5.68685 21.3623 5.71289C21.3623 5.73893 21.3588 5.76018 21.3552 5.77279C21.3535 5.77873 21.3527 5.77956 21.3543 5.7765C21.3557 5.77372 21.3616 5.76309 21.3748 5.74987L21.7892 6.16419C21.8619 6.09146 21.8989 6.00264 21.9186 5.93375C21.9394 5.86091 21.9482 5.7845 21.9482 5.71289C21.9482 5.64127 21.9394 5.56487 21.9186 5.49202C21.8989 5.42314 21.8619 5.33431 21.7892 5.26159L21.3748 5.67591ZM19.3241 3.62513L21.3748 5.67591L21.7892 5.26159L19.7384 3.21081L19.3241 3.62513ZM19.2501 3.62513C19.2369 3.63835 19.2262 3.64422 19.2235 3.64567C19.2204 3.64726 19.2212 3.64643 19.2272 3.64473C19.2398 3.64113 19.261 3.63769 19.2871 3.63769C19.3131 3.63769 19.3344 3.64113 19.347 3.64473C19.3529 3.64643 19.3537 3.64726 19.3507 3.64567C19.3479 3.64422 19.3373 3.63835 19.3241 3.62513L19.7384 3.21081C19.6656 3.13808 19.5768 3.10102 19.5079 3.08134C19.4351 3.06053 19.3587 3.05176 19.2871 3.05176C19.2155 3.05176 19.1391 3.06053 19.0662 3.08134C18.9973 3.10102 18.9085 3.13808 18.8358 3.21081L19.2501 3.62513ZM17.5899 5.28528L19.2501 3.62513L18.8358 3.21081L17.1756 4.87096L17.5899 5.28528ZM15.3142 5.73803C16.1168 6.082 17.024 5.85122 17.5899 5.28528L17.1756 4.87096C16.765 5.28159 16.1096 5.44143 15.5451 5.19947L15.3142 5.73803ZM14.0625 3.80859C14.0625 4.70467 14.5208 5.39797 15.3142 5.73803L15.5451 5.19947C14.9713 4.95359 14.6484 4.47502 14.6484 3.80859H14.0625ZM14.0625 1.5625V3.80859H14.6484V1.5625H14.0625ZM13.9648 1.46484C13.9648 1.46484 13.9664 1.46484 13.9698 1.46565C13.9732 1.46647 13.9782 1.46804 13.9843 1.47093C13.9971 1.47689 14.0121 1.48698 14.0262 1.5011C14.0403 1.51523 14.0504 1.53017 14.0564 1.54296C14.0593 1.54913 14.0608 1.55406 14.0617 1.5575C14.0625 1.56089 14.0625 1.56252 14.0625 1.5625H14.6484C14.6484 1.36956 14.5549 1.20114 14.4405 1.08678C14.3262 0.972424 14.1577 0.878905 13.9648 0.878905V1.46484ZM11.0351 1.46484H13.9648V0.878905H11.0351V1.46484ZM10.9375 1.5625C10.9375 1.56012 10.9416 1.53323 10.9737 1.5011C11.0059 1.46898 11.0327 1.46484 11.0351 1.46484V0.878905C10.8422 0.878905 10.6738 0.972424 10.5594 1.08678C10.445 1.20114 10.3515 1.36956 10.3515 1.5625H10.9375ZM10.9375 3.80859V1.5625H10.3515V3.80859H10.9375ZM9.68568 5.73803C10.4792 5.39797 10.9375 4.70467 10.9375 3.80859H10.3515C10.3515 4.47502 10.0286 4.95359 9.45487 5.19947L9.68568 5.73803ZM7.40999 5.28528C7.97592 5.85122 8.88308 6.082 9.68568 5.73803L9.45487 5.19947C8.89028 5.44143 8.23494 5.28159 7.82431 4.87096L7.40999 5.28528ZM5.74983 3.62513L7.40999 5.28528L7.82431 4.87096L6.16415 3.21081L5.74983 3.62513ZM5.67587 3.62513C5.66265 3.63835 5.65202 3.64422 5.64924 3.64567C5.64619 3.64726 5.64702 3.64643 5.65296 3.64473C5.66556 3.64113 5.68681 3.63769 5.71285 3.63769C5.7389 3.63769 5.76015 3.64113 5.77275 3.64473C5.77869 3.64643 5.77952 3.64726 5.77646 3.64567C5.77369 3.64422 5.76306 3.63835 5.74983 3.62513L6.16416 3.21081C6.09143 3.13808 6.00261 3.10102 5.93372 3.08134C5.86087 3.06053 5.78447 3.05176 5.71285 3.05176C5.64124 3.05176 5.56483 3.06053 5.49199 3.08134C5.4231 3.10102 5.33428 3.13808 5.26155 3.21081L5.67587 3.62513ZM3.62509 5.67591L5.67587 3.62513L5.26155 3.21081L3.21077 5.26159L3.62509 5.67591ZM3.62509 5.74987C3.63831 5.76309 3.64418 5.77372 3.64563 5.7765C3.64722 5.77955 3.64639 5.77873 3.6447 5.77279C3.6411 5.76018 3.63766 5.73893 3.63766 5.71289C3.63766 5.68685 3.6411 5.6656 3.6447 5.65299C3.64639 5.64705 3.64722 5.64622 3.64563 5.64928C3.64418 5.65206 3.63832 5.66269 3.62509 5.67591L3.21077 5.26159C3.13805 5.33431 3.10099 5.42313 3.0813 5.49202C3.06049 5.56487 3.05172 5.64127 3.05172 5.71289C3.05172 5.7845 3.06049 5.86091 3.0813 5.93375C3.10099 6.00264 3.13805 6.09147 3.21077 6.16419L3.62509 5.74987ZM5.28525 7.41003L3.62509 5.74987L3.21077 6.16419L4.87093 7.82435L5.28525 7.41003ZM5.73799 9.68572C6.08197 8.88312 5.85118 7.97596 5.28525 7.41003L4.87093 7.82435C5.28156 8.23498 5.4414 8.89032 5.19943 9.4549L5.73799 9.68572ZM3.80856 10.9375C4.70463 10.9375 5.39793 10.4792 5.73799 9.68572L5.19943 9.4549C4.95356 10.0286 4.47498 10.3516 3.80856 10.3516V10.9375ZM1.56246 10.9375H3.80856V10.3516H1.56246V10.9375ZM1.46481 11.0352C1.46481 11.0328 1.46894 11.0059 1.50107 10.9738C1.53319 10.9416 1.56009 10.9375 1.56246 10.9375V10.3516C1.36952 10.3516 1.20111 10.4451 1.08675 10.5594C0.972389 10.6738 0.87887 10.8422 0.87887 11.0352H1.46481ZM1.46481 13.9648V11.0352H0.87887V13.9648H1.46481ZM1.56246 14.0625C1.56249 14.0625 1.56086 14.0625 1.55746 14.0617C1.55402 14.0609 1.5491 14.0593 1.54292 14.0564C1.53014 14.0504 1.5152 14.0404 1.50107 14.0262C1.48694 14.0121 1.47686 13.9972 1.47089 13.9844C1.46801 13.9782 1.46643 13.9733 1.46561 13.9698C1.4648 13.9664 1.46481 13.9648 1.46481 13.9648H0.87887C0.87887 14.1578 0.972389 14.3262 1.08675 14.4406C1.20111 14.5549 1.36952 14.6484 1.56246 14.6484V14.0625ZM3.80856 14.0625H1.56246V14.6484H3.80856V14.0625ZM5.73799 15.3143C5.39793 14.5208 4.70463 14.0625 3.80856 14.0625V14.6484C4.47498 14.6484 4.95356 14.9714 5.19943 15.5451L5.73799 15.3143ZM5.28525 17.59C5.85118 17.024 6.08197 16.1169 5.73799 15.3143L5.19943 15.5451C5.4414 16.1097 5.28156 16.765 4.87093 17.1757L5.28525 17.59ZM3.62509 19.2501L5.28525 17.59L4.87093 17.1757L3.21077 18.8358L3.62509 19.2501ZM3.62509 19.3241C3.63832 19.3373 3.64418 19.3479 3.64563 19.3507C3.64723 19.3538 3.64639 19.3529 3.6447 19.347C3.6411 19.3344 3.63766 19.3131 3.63766 19.2871C3.63766 19.2611 3.6411 19.2398 3.6447 19.2272C3.64639 19.2213 3.64722 19.2204 3.64563 19.2235C3.64418 19.2263 3.63831 19.2369 3.62509 19.2501L3.21077 18.8358C3.13805 18.9085 3.10099 18.9974 3.0813 19.0662C3.06049 19.1391 3.05172 19.2155 3.05172 19.2871C3.05172 19.3587 3.06049 19.4351 3.0813 19.508C3.10099 19.5769 3.13805 19.6657 3.21077 19.7384L3.62509 19.3241ZM5.67587 21.3749L3.62509 19.3241L3.21077 19.7384L5.26155 21.7892L5.67587 21.3749ZM5.74984 21.3749C5.76306 21.3616 5.77369 21.3558 5.77647 21.3543C5.77952 21.3527 5.77869 21.3536 5.77275 21.3553C5.76015 21.3589 5.7389 21.3623 5.71285 21.3623C5.68681 21.3623 5.66556 21.3589 5.65296 21.3553C5.64702 21.3536 5.64619 21.3527 5.64924 21.3543C5.65202 21.3558 5.66265 21.3616 5.67587 21.3749L5.26155 21.7892C5.33428 21.8619 5.4231 21.899 5.49199 21.9187C5.56484 21.9395 5.64124 21.9482 5.71285 21.9482C5.78447 21.9482 5.86087 21.9395 5.93372 21.9187C6.00261 21.899 6.09143 21.8619 6.16415 21.7892L5.74984 21.3749ZM7.40999 19.7147L5.74983 21.3749L6.16415 21.7892L7.82431 20.129L7.40999 19.7147ZM8.88668 19.1406C8.30961 19.1406 7.8577 19.3752 7.44137 19.6875L7.79293 20.1562C8.15785 19.8826 8.48719 19.7266 8.88668 19.7266V19.1406ZM9.7013 19.2692C9.55665 19.1969 9.39318 19.1678 9.25763 19.1543C9.11888 19.1404 8.9827 19.1406 8.88668 19.1406V19.7266C8.98597 19.7266 9.09394 19.7268 9.19933 19.7373C9.30792 19.7482 9.38859 19.768 9.43926 19.7933L9.7013 19.2692ZM10.9375 21.1914C10.9375 20.2953 10.4792 19.602 9.68568 19.262L9.45487 19.8005C10.0286 20.0464 10.3515 20.525 10.3515 21.1914H10.9375ZM10.9375 23.4375V21.1914H10.3515V23.4375H10.9375ZM11.0351 23.5352C11.0327 23.5352 11.0059 23.531 10.9737 23.4989C10.9596 23.4848 10.9495 23.4698 10.9435 23.457C10.9407 23.4509 10.9391 23.4459 10.9383 23.4425C10.9375 23.4391 10.9375 23.4375 10.9375 23.4375H10.3515C10.3515 23.6304 10.445 23.7989 10.5594 23.9132C10.6738 24.0276 10.8422 24.1211 11.0351 24.1211V23.5352ZM13.9648 23.5352H11.0351V24.1211H13.9648V23.5352ZM14.0625 23.4375C14.0625 23.4375 14.0625 23.4391 14.0617 23.4425C14.0608 23.4459 14.0593 23.4509 14.0564 23.457C14.0504 23.4698 14.0403 23.4848 14.0262 23.4989C14.0121 23.513 13.9971 23.5231 13.9843 23.5291C13.9782 23.532 13.9732 23.5335 13.9698 23.5343C13.9664 23.5352 13.9648 23.5352 13.9648 23.5352V24.1211C14.1577 24.1211 14.3262 24.0276 14.4405 23.9132C14.5549 23.7989 14.6484 23.6304 14.6484 23.4375H14.0625ZM14.0625 21.1914V23.4375H14.6484V21.1914H14.0625ZM15.3142 19.262C14.5208 19.602 14.0625 20.2953 14.0625 21.1914H14.6484C14.6484 20.525 14.9713 20.0464 15.5451 19.8005L15.3142 19.262ZM17.5899 19.7147C17.024 19.1488 16.1168 18.918 15.3142 19.262L15.5451 19.8005C16.1096 19.5586 16.765 19.7184 17.1756 20.129L17.5899 19.7147ZM19.2501 21.3749L17.5899 19.7147L17.1756 20.129L18.8358 21.7892L19.2501 21.3749ZM19.3241 21.3749C19.3373 21.3616 19.3479 21.3558 19.3507 21.3543C19.3537 21.3527 19.3529 21.3536 19.347 21.3553C19.3344 21.3589 19.3131 21.3623 19.2871 21.3623C19.261 21.3623 19.2398 21.3589 19.2272 21.3553C19.2212 21.3536 19.2204 21.3527 19.2235 21.3543C19.2262 21.3558 19.2369 21.3616 19.2501 21.3749L18.8358 21.7892C18.9085 21.8619 18.9973 21.899 19.0662 21.9187C19.1391 21.9395 19.2155 21.9482 19.2871 21.9482C19.3587 21.9482 19.4351 21.9395 19.5079 21.9187C19.5768 21.899 19.6656 21.8619 19.7384 21.7892L19.3241 21.3749ZM21.3748 19.3241L19.3241 21.3749L19.7384 21.7892L21.7892 19.7384L21.3748 19.3241ZM21.3748 19.2501C21.3616 19.2369 21.3557 19.2263 21.3543 19.2235C21.3527 19.2204 21.3535 19.2213 21.3552 19.2272C21.3588 19.2398 21.3623 19.2611 21.3623 19.2871C21.3623 19.3132 21.3588 19.3344 21.3552 19.347C21.3535 19.3529 21.3527 19.3538 21.3543 19.3507C21.3557 19.3479 21.3616 19.3373 21.3748 19.3241L21.7892 19.7384C21.8619 19.6657 21.8989 19.5769 21.9186 19.508C21.9394 19.4351 21.9482 19.3587 21.9482 19.2871C21.9482 19.2155 21.9394 19.1391 21.9186 19.0662C21.8989 18.9974 21.8619 18.9085 21.7892 18.8358L21.3748 19.2501ZM19.7147 17.59L21.3748 19.2501L21.7892 18.8358L20.129 17.1757L19.7147 17.59ZM19.2619 15.3143C18.918 16.1169 19.1487 17.024 19.7147 17.59L20.129 17.1757C19.7184 16.765 19.5585 16.1097 19.8005 15.5451L19.2619 15.3143ZM21.1914 14.0625C20.2953 14.0625 19.602 14.5208 19.2619 15.3143L19.8005 15.5451C20.0464 14.9714 20.5249 14.6484 21.1914 14.6484V14.0625ZM23.4375 14.0625H21.1914V14.6484H23.4375V14.0625Z" fill="#242424"/>
<path fill-rule="evenodd" clip-rule="evenodd" d="M8.39842 12.5C8.39842 10.2539 10.2539 8.39844 12.5 8.39844C14.7461 8.39844 16.6015 10.2539 16.6015 12.5C16.6015 14.7461 14.7461 16.6016 12.5 16.6016C10.2539 16.6016 8.39842 14.7461 8.39842 12.5ZM9.37498 12.5C9.37498 14.1602 10.7422 15.625 12.5 15.625C14.2578 15.625 15.625 14.1602 15.625 12.5C15.625 10.8398 14.1601 9.375 12.5 9.375C10.8398 9.375 9.37498 10.8398 9.37498 12.5Z" fill="#242424"/>
<path d="M12.5 8.10547C10.0921 8.10547 8.10545 10.0921 8.10545 12.5H8.69139C8.69139 10.4157 10.4157 8.69141 12.5 8.69141V8.10547ZM16.8945 12.5C16.8945 10.0921 14.9079 8.10547 12.5 8.10547V8.69141C14.5843 8.69141 16.3086 10.4157 16.3086 12.5H16.8945ZM12.5 16.8945C14.9079 16.8945 16.8945 14.9079 16.8945 12.5H16.3086C16.3086 14.5843 14.5843 16.3086 12.5 16.3086V16.8945ZM8.10545 12.5C8.10545 14.9079 10.0921 16.8945 12.5 16.8945V16.3086C10.4157 16.3086 8.69139 14.5843 8.69139 12.5H8.10545ZM12.5 15.332C10.9099 15.332 9.66795 14.0043 9.66795 12.5H9.08201C9.08201 14.316 10.5745 15.918 12.5 15.918V15.332ZM15.332 12.5C15.332 14.0043 14.0901 15.332 12.5 15.332V15.918C14.4255 15.918 15.918 14.316 15.918 12.5H15.332ZM12.5 9.66797C13.9983 9.66797 15.332 11.0016 15.332 12.5H15.918C15.918 10.678 14.3219 9.08203 12.5 9.08203V9.66797ZM9.66795 12.5C9.66795 11.0016 11.0016 9.66797 12.5 9.66797V9.08203C10.678 9.08203 9.08201 10.678 9.08201 12.5H9.66795Z" fill="#242424"/>
</svg>
