<svg width="38" height="38" viewBox="0 0 38 38" fill="none" xmlns="http://www.w3.org/2000/svg">
<circle cx="19" cy="19" r="19" fill="#7A40F2"/>
<mask id="mask0_0_327" style="mask-type:luminance" maskUnits="userSpaceOnUse" x="0" y="0" width="38" height="38">
<circle cx="19" cy="19" r="19" fill="white"/>
</mask>
<g mask="url(#mask0_0_327)">
<path fill-rule="evenodd" clip-rule="evenodd" d="M13.1298 10.0103C12.1033 11.9564 9.7414 12.6732 7.6754 13.4307C5.60968 14.1879 3.33866 15.5494 3.18036 17.7441C3.08117 19.1241 3.88537 20.4577 3.7484 21.8348C3.46582 24.6774 -0.245492 25.6332 -1.96606 27.9135C-3.20422 29.5547 -3.29044 31.899 -2.43779 33.7698C-1.58515 35.6406 0.097352 37.0512 1.98285 37.871C5.87438 39.5618 10.6021 38.7905 14.0603 36.332C17.5181 33.8739 19.743 29.9062 20.5535 25.7414C21.3641 21.5768 20.8451 17.2317 19.587 13.1795C19.1196 11.6744 18.4604 10.0882 17.1023 9.28828C15.7445 8.48841 13.5568 9.04319 13.3094 10.5997L13.1298 10.0103Z" fill="#0A0F21"/>
<path fill-rule="evenodd" clip-rule="evenodd" d="M12.2341 13.9252C12.2341 8.44343 16.307 4 21.3312 4C26.3553 4 30.428 8.44343 30.428 13.9252C30.428 19.4067 26.3553 23.8501 21.3312 23.8501C16.307 23.8501 12.2341 19.4067 12.2341 13.9252Z" fill="#0A0F21"/>
<path fill-rule="evenodd" clip-rule="evenodd" d="M14.7494 12.1187C14.7494 12.1187 12.7915 10.57 12.8166 10.226L12.2341 10.4601L14.021 12.6815L14.7494 12.1187Z" fill="#FF05DB"/>
<path fill-rule="evenodd" clip-rule="evenodd" d="M10.1024 39.8855C10.1024 39.8855 17.1034 43.4975 20.9428 43.4094C24.8903 43.3188 33.4628 39.3493 33.4628 39.3493C33.4628 39.3493 31.7844 30.636 22.6677 32.5634C22.6677 32.5634 14.1574 30.4387 10.1024 39.8855Z" fill="#57C6FF"/>
<path fill-rule="evenodd" clip-rule="evenodd" d="M26.3323 22.9355L18.3962 24.2823L18.3229 33.9771C18.3229 33.9771 18.7785 36.4883 22.882 36.5587C26.7551 36.625 27.0131 33.8615 27.0131 33.8615L26.3323 22.9355L14.3683 31.7283Z" fill="#FBDED4"/>
<path fill-rule="evenodd" clip-rule="evenodd" d="M18.3543 29.7915L18.3962 24.2823L18.3543 29.7915Z" fill="#0A0F21"/>
<path fill-rule="evenodd" clip-rule="evenodd" d="M18.7615 29.8039C18.5029 29.8039 18.3558 29.7918 18.3544 29.7915L18.3962 24.2823L26.3324 22.9355L26.5299 26.1081C23.9391 29.5132 20.023 29.8039 18.7615 29.8039Z" fill="#F6D3C8"/>
<path fill-rule="evenodd" clip-rule="evenodd" d="M31.8244 18.501C31.8244 19.272 30.8864 20.3637 29.8097 20.05C29.0695 19.8343 28.1215 19.272 28.1215 18.501C28.1215 17.7296 29.2019 16.9546 29.9729 16.9546C31.2172 16.9546 31.8244 17.7296 31.8244 18.501Z" fill="#FBDED4"/>
<path fill-rule="evenodd" clip-rule="evenodd" d="M30.428 19.0728C30.4294 18.9044 30.4571 18.7386 30.5122 18.5794C30.571 18.4208 30.6324 18.2599 30.8086 18.1273C30.8484 18.0958 30.9205 18.0719 30.9836 18.0719C31.0171 18.0751 31.0543 18.0777 31.0831 18.0886C31.1099 18.1022 31.137 18.1166 31.1618 18.1339C31.2088 18.1682 31.2328 18.2097 31.2668 18.2475C31.3112 18.3121 31.3106 18.3669 31.3132 18.4136C31.3144 18.5987 31.2581 18.7541 31.1869 18.9072C31.1676 18.7426 31.1578 18.5739 31.1287 18.4361C31.12 18.4041 31.1067 18.375 31.101 18.3744L31.0338 18.3196C30.9911 18.2928 30.9828 18.3026 30.9381 18.3271C30.8484 18.3845 30.7604 18.5281 30.6806 18.6572C30.6019 18.7922 30.5177 18.9309 30.428 19.0728Z" fill="#EEA08E"/>
<path fill-rule="evenodd" clip-rule="evenodd" d="M13.3994 18.501C13.3994 19.272 14.3377 20.3637 15.4141 20.05C16.1546 19.8343 17.1024 19.272 17.1024 18.501C17.1024 17.7296 16.0219 16.9546 15.2509 16.9546C14.0067 16.9546 13.3994 17.7296 13.3994 18.501Z" fill="#FBDED4"/>
<path fill-rule="evenodd" clip-rule="evenodd" d="M14.7959 19.0728C14.7065 18.9309 14.6223 18.7922 14.5436 18.6572C14.4634 18.5281 14.3755 18.3845 14.2855 18.3271C14.2414 18.3026 14.233 18.2928 14.1904 18.3196L14.1229 18.3744C14.1171 18.375 14.1039 18.4041 14.0952 18.4361C14.0661 18.5739 14.0563 18.7426 14.0372 18.9072C13.9657 18.7541 13.9095 18.5987 13.9107 18.4136C13.9135 18.3669 13.913 18.3121 13.9571 18.2475C13.9911 18.2097 14.015 18.1682 14.062 18.1339C14.0868 18.1166 14.1139 18.1022 14.1408 18.0886C14.1699 18.0777 14.2068 18.0751 14.2402 18.0719C14.3034 18.0719 14.3755 18.0958 14.4156 18.1273C14.5917 18.2599 14.6529 18.4208 14.7117 18.5794C14.7671 18.7386 14.7944 18.9044 14.7959 19.0728Z" fill="#EEA08E"/>
<path fill-rule="evenodd" clip-rule="evenodd" d="M29.9678 16.4923C30.1054 21.8772 27.5564 27.0242 23.1294 27.1375C18.7021 27.2506 15.5049 22.654 15.3674 17.2691C15.2298 11.8843 18.2036 7.75053 22.6305 7.63721C27.0578 7.52389 29.83 11.1075 29.9678 16.4923Z" fill="#FBDED4"/>
<path fill-rule="evenodd" clip-rule="evenodd" d="M20.132 16.7657C20.1248 17.0638 19.9397 17.3012 19.7191 17.296C19.4982 17.2905 19.3249 17.0445 19.3321 16.7464C19.3396 16.4482 19.5245 16.2109 19.7453 16.2161C19.9662 16.2216 20.1392 16.4678 20.132 16.7657Z" fill="#172133"/>
<path fill-rule="evenodd" clip-rule="evenodd" d="M25.8918 16.7657C25.8846 17.0638 25.6997 17.3012 25.4786 17.296C25.258 17.2905 25.0847 17.0445 25.0919 16.7464C25.0991 16.4482 25.2842 16.2109 25.5051 16.2161C25.7257 16.2216 25.899 16.4678 25.8918 16.7657Z" fill="#172133"/>
<path fill-rule="evenodd" clip-rule="evenodd" d="M20.9429 19.586C21.2237 19.9067 21.5103 20.2005 21.8235 20.4297C22.1375 20.6549 22.4783 20.8066 22.8229 20.7951C23.1683 20.7985 23.5155 20.6425 23.8471 20.4346C24.1781 20.2215 24.4881 19.9502 24.8211 19.6806C24.6504 20.073 24.4082 20.4355 24.0821 20.7365C23.9192 20.8879 23.7318 21.0171 23.5221 21.1212C23.3096 21.2178 23.072 21.2789 22.8275 21.2852C22.5833 21.2838 22.3393 21.2279 22.126 21.1246C21.9146 21.0174 21.7254 20.8807 21.572 20.7163C21.2615 20.3928 21.0458 20.0035 20.9429 19.586Z" fill="#292929"/>
<path fill-rule="evenodd" clip-rule="evenodd" d="M22.3655 18.5733C22.477 18.4035 22.612 18.2706 22.7556 18.1509C22.8975 18.0292 23.0509 17.9254 23.2118 17.8329L23.2025 18.2674C23.0633 18.1619 22.9618 18.0367 22.883 17.907C22.8058 17.7758 22.7467 17.6437 22.706 17.5065C22.6215 17.2348 22.5869 16.9554 22.6195 16.6743C22.774 16.909 22.9078 17.1354 23.0494 17.3435C23.1244 17.4442 23.189 17.5483 23.2688 17.6307C23.3455 17.7149 23.4228 17.7893 23.4998 17.8389L23.819 18.0451L23.4906 18.2735C23.3386 18.3793 23.1792 18.4736 23.0085 18.55C22.8389 18.6287 22.661 18.6939 22.46 18.7221C22.407 18.7299 22.358 18.693 22.3505 18.6399L22.3655 18.5733Z" fill="#D1746F"/>
<path fill-rule="evenodd" clip-rule="evenodd" d="M26.5299 6.50198C24.9284 5.19952 22.0063 5.75171 22.0063 5.75171C19.3428 6.07379 16.917 7.61529 15.7039 10.0083C13.8374 13.6896 15.4265 17.567 15.4265 17.567C19.7015 16.0186 22.3837 11.2822 23.5169 8.84769C24.0215 11.2934 25.5613 14.61 29.973 16.9543C29.973 16.9543 31.2265 10.3214 26.5299 6.50198Z" fill="#0A0F21"/>
</g>
</svg>
