<svg width="118" height="996" viewBox="0 0 118 996" fill="none" xmlns="http://www.w3.org/2000/svg">
<path fill-rule="evenodd" clip-rule="evenodd" d="M0 30C0 13.4315 13.4315 0 30 0H88C104.569 0 118 13.4315 118 30V167.992C118 179.042 109.042 188 97.9922 188H56.5C41.3122 188 29 200.312 29 215.5C29 230.688 41.3122 243 56.5 243H97.9922C109.042 243 118 251.958 118 263.008V579V966C118 982.569 104.569 996 88 996H30C13.4315 996 0 982.569 0 966V30Z" fill="#7A40F2"/>
<mask id="mask0_0_351" style="mask-type:luminance" maskUnits="userSpaceOnUse" x="0" y="0" width="118" height="996">
<path fill-rule="evenodd" clip-rule="evenodd" d="M0 30C0 13.4315 13.4315 0 30 0H88C104.569 0 118 13.4315 118 30V167.992C118 179.042 109.042 188 97.9922 188H56.5C41.3122 188 29 200.312 29 215.5C29 230.688 41.3122 243 56.5 243H97.9922C109.042 243 118 251.958 118 263.008V579V966C118 982.569 104.569 996 88 996H30C13.4315 996 0 982.569 0 966V30Z" fill="white"/>
</mask>
<g mask="url(#mask0_0_351)">
<path fill-rule="evenodd" clip-rule="evenodd" d="M76.6566 78.2514L66.2602 67.804C62.5212 64.0653 56.4788 64.0653 52.7398 67.804L42.3434 78.2514C42.0085 78.5855 41.9079 79.0899 42.0888 79.5278C42.2697 79.9658 42.6962 80.2504 43.1681 80.2479H44.93V91.6371C44.9369 96.2529 48.6588 99.9931 53.2522 100H55.039C55.6829 99.9931 56.2012 99.4667 56.2011 98.8196V89.2261H62.7989V98.8196C62.7988 99.4667 63.3171 99.9931 63.961 100H65.7478C70.3412 99.9931 74.0631 96.2529 74.07 91.6371V80.2479H75.8319C76.3037 80.2504 76.7303 79.9658 76.9112 79.5278C77.0921 79.0899 76.9915 78.5855 76.6566 78.2514ZM54.3893 69.4615C55.744 68.0981 57.5827 67.332 59.5 67.332C61.4173 67.332 63.256 68.0981 64.6107 69.4615L73.0078 77.8998H45.9922L54.3893 69.4615ZM65.7478 97.6518C69.0507 97.6449 71.7264 94.9561 71.7333 91.6371V80.2479H47.2667V91.6371C47.2736 94.9561 49.9493 97.6449 53.2522 97.6518H53.8644V88.0458C53.8713 87.3988 54.3952 86.878 55.039 86.878H63.961C64.6048 86.878 65.1287 87.3988 65.1356 88.0458V97.6518H65.7478Z" fill="white"/>
</g>
<mask id="path-4-inside-1_0_351" fill="white">
<rect x="48" y="213.409" width="10.4545" height="13.5909" rx="1.56818"/>
</mask>
<rect x="48" y="213.409" width="10.4545" height="13.5909" rx="1.56818" stroke="#7A40F2" stroke-width="3.34545" mask="url(#path-4-inside-1_0_351)"/>
<mask id="path-5-inside-2_0_351" fill="white">
<rect x="60.4293" y="204" width="10.4545" height="13.5909" rx="1.56818"/>
</mask>
<rect x="60.4293" y="204" width="10.4545" height="13.5909" rx="1.56818" stroke="#7A40F2" stroke-width="3.34545" mask="url(#path-5-inside-2_0_351)"/>
<rect x="48" y="204" width="10.4545" height="7.31818" rx="1.56818" fill="#7A40F2"/>
<rect x="60.4293" y="219.682" width="10.4545" height="7.31818" rx="1.56818" fill="#7A40F2"/>
<path fill-rule="evenodd" clip-rule="evenodd" d="M48.3176 309.315C48.7041 309.948 49.3859 310.334 50.12 310.333H58.6969V320.333H54.244C53.7838 320.333 53.4107 320.706 53.4107 321.167C53.4107 321.627 53.7838 322 54.244 322H64.7928C65.253 322 65.6261 321.627 65.6261 321.167C65.6261 320.706 65.253 320.333 64.7928 320.333H60.3399V310.333H68.9168C69.6459 310.321 70.3174 309.929 70.6945 309.296C71.0716 308.663 71.1015 307.877 70.7735 307.217L66.6658 298.809C66.122 297.699 65.0043 296.998 63.7822 297H55.2546C54.0159 296.983 52.8779 297.69 52.3299 298.817L48.2222 307.225C47.895 307.892 47.9311 308.682 48.3176 309.315ZM53.8333 299.559C54.1002 299.01 54.6518 298.664 55.2546 298.667H63.7822C64.3968 298.651 64.9643 298.999 65.2363 299.559L69.344 307.967C69.4182 308.117 69.4103 308.295 69.3232 308.438C69.2362 308.581 69.0823 308.667 68.9168 308.667H50.0871C49.9216 308.667 49.7678 308.581 49.6807 308.438C49.5936 308.295 49.5857 308.117 49.6599 307.967L53.8333 299.559Z" fill="white"/>
<path d="M50.12 310.333V310.083H50.1199L50.12 310.333ZM48.3176 309.315L48.531 309.185L48.3176 309.315ZM58.6969 310.333H58.9469V310.083H58.6969V310.333ZM58.6969 320.333V320.583H58.9469V320.333H58.6969ZM60.3399 320.333H60.0899V320.583H60.3399V320.333ZM60.3399 310.333V310.083H60.0899V310.333H60.3399ZM68.9168 310.333V310.584L68.9212 310.583L68.9168 310.333ZM70.7735 307.217L70.5489 307.327L70.5496 307.328L70.7735 307.217ZM66.6658 298.809L66.8904 298.699L66.8903 298.699L66.6658 298.809ZM63.7822 297V297.25L63.7828 297.25L63.7822 297ZM55.2546 297L55.2511 297.25H55.2546V297ZM52.3299 298.817L52.5545 298.927L52.5547 298.926L52.3299 298.817ZM48.2222 307.225L48.4466 307.335L48.4468 307.335L48.2222 307.225ZM55.2546 298.667L55.2535 298.917H55.2546V298.667ZM53.8333 299.559L54.0573 299.67L54.0581 299.668L53.8333 299.559ZM63.7822 298.667V298.917L63.7886 298.917L63.7822 298.667ZM65.2363 299.559L65.0115 299.668L65.0117 299.668L65.2363 299.559ZM69.344 307.967L69.1194 308.077L69.1199 308.078L69.344 307.967ZM68.9168 308.667L68.9175 308.417H68.9168V308.667ZM50.0871 308.667V308.417L50.0864 308.417L50.0871 308.667ZM49.6807 308.438L49.8941 308.308H49.8941L49.6807 308.438ZM49.6599 307.967L49.436 307.856L49.4358 307.856L49.6599 307.967ZM50.1199 310.083C49.4741 310.084 48.8726 309.745 48.531 309.185L48.1042 309.446C48.5355 310.152 49.2977 310.584 50.12 310.583L50.1199 310.083ZM58.6969 310.083H50.12V310.583H58.6969V310.083ZM58.9469 320.333V310.333H58.4469V320.333H58.9469ZM54.244 320.583H58.6969V320.083H54.244V320.583ZM53.6607 321.167C53.6607 320.845 53.9219 320.583 54.244 320.583V320.083C53.6457 320.083 53.1607 320.568 53.1607 321.167H53.6607ZM54.244 321.75C53.9219 321.75 53.6607 321.489 53.6607 321.167H53.1607C53.1607 321.765 53.6457 322.25 54.244 322.25V321.75ZM64.7928 321.75H54.244V322.25H64.7928V321.75ZM65.3761 321.167C65.3761 321.489 65.1149 321.75 64.7928 321.75V322.25C65.3911 322.25 65.8761 321.765 65.8761 321.167H65.3761ZM64.7928 320.583C65.115 320.583 65.3761 320.845 65.3761 321.167H65.8761C65.8761 320.568 65.3911 320.083 64.7928 320.083V320.583ZM60.3399 320.583H64.7928V320.083H60.3399V320.583ZM60.0899 310.333V320.333H60.5899V310.333H60.0899ZM68.9168 310.083H60.3399V310.583H68.9168V310.083ZM70.4797 309.168C70.1463 309.727 69.5539 310.072 68.9125 310.084L68.9212 310.583C69.7379 310.569 70.4884 310.13 70.9093 309.424L70.4797 309.168ZM70.5496 307.328C70.8398 307.913 70.8133 308.608 70.4797 309.168L70.9093 309.424C71.3299 308.718 71.3631 307.842 70.9974 307.106L70.5496 307.328ZM66.4412 298.918L70.5489 307.327L70.9981 307.107L66.8904 298.699L66.4412 298.918ZM63.7828 297.25C64.9078 297.248 65.9389 297.893 66.4413 298.919L66.8903 298.699C66.305 297.504 65.1007 296.747 63.7817 296.75L63.7828 297.25ZM55.2546 297.25H63.7822V296.75H55.2546V297.25ZM52.5547 298.926C53.061 297.885 54.1108 297.234 55.2511 297.25L55.2581 296.75C53.921 296.732 52.6948 297.495 52.1051 298.708L52.5547 298.926ZM48.4468 307.335L52.5545 298.927L52.1053 298.707L47.9976 307.115L48.4468 307.335ZM48.531 309.185C48.1891 308.625 48.1571 307.925 48.4466 307.335L47.9978 307.115C47.633 307.858 47.6731 308.74 48.1042 309.446L48.531 309.185ZM55.2557 298.417C54.5554 298.414 53.9168 298.816 53.6086 299.449L54.0581 299.668C54.2836 299.205 54.7482 298.915 55.2535 298.917L55.2557 298.417ZM63.7822 298.417H55.2546V298.917H63.7822V298.417ZM65.4612 299.449C65.147 298.803 64.4899 298.399 63.7758 298.417L63.7886 298.917C64.3037 298.904 64.7817 299.195 65.0115 299.668L65.4612 299.449ZM69.5687 307.857L65.461 299.449L65.0117 299.668L69.1194 308.077L69.5687 307.857ZM69.5366 308.568C69.6685 308.352 69.6803 308.083 69.5681 307.856L69.1199 308.078C69.1562 308.151 69.1522 308.238 69.1099 308.308L69.5366 308.568ZM68.9162 308.917C69.1701 308.918 69.4046 308.784 69.5366 308.568L69.1099 308.308C69.0677 308.377 68.9945 308.417 68.9175 308.417L68.9162 308.917ZM50.0871 308.917H68.9168V308.417H50.0871V308.917ZM49.4673 308.568C49.5993 308.784 49.8338 308.918 50.0878 308.917L50.0864 308.417C50.0095 308.417 49.9362 308.377 49.8941 308.308L49.4673 308.568ZM49.4358 307.856C49.3237 308.083 49.3355 308.352 49.4673 308.568L49.8941 308.308C49.8517 308.238 49.8478 308.151 49.884 308.078L49.4358 307.856ZM53.6094 299.447L49.436 307.856L49.8838 308.078L54.0573 299.67L53.6094 299.447Z" fill="white"/>
<path d="M69.0945 386.649C66.9262 383.212 63.848 380.356 60.1567 378.355L59.5 378L58.8433 378.355C55.0891 380.382 51.9718 383.299 49.805 386.811C47.6382 390.323 46.4983 394.307 46.5 398.362C46.5 398.626 46.5049 398.895 46.5145 399.16C46.645 402.753 48.1138 405.777 50.7621 407.903C52.7886 409.531 55.3881 410.525 58.1889 410.762V415H60.8118V395.368H58.1885V408.292C53.757 407.812 49.3465 404.883 49.1357 399.076C49.1271 398.839 49.1226 398.599 49.1226 398.362C49.1304 394.861 50.0863 391.418 51.9009 388.356C53.7156 385.293 56.33 382.711 59.5 380.849C62.67 382.711 65.2843 385.293 67.0989 388.356C68.9135 391.418 69.8693 394.861 69.877 398.362C69.877 398.599 69.8726 398.839 69.8639 399.076C69.6954 403.722 66.8388 406.525 63.4341 407.706V410.304C65.2009 409.835 66.8392 409.016 68.2379 407.903C70.8862 405.776 72.355 402.753 72.4855 399.16C72.4951 398.895 72.5 398.626 72.5 398.362C72.5023 394.243 71.3265 390.199 69.0945 386.649Z" fill="white"/>
<path d="M59.397 495.73L60.1058 495.097L60.1058 495.097L59.397 495.73ZM60.603 495.73L59.8942 495.097L59.8942 495.097L60.603 495.73ZM69 480.054H69.95V480.054L69 480.054ZM60 470.05C54.5073 470.05 50.05 474.542 50.05 480.054H51.95C51.95 475.581 55.5674 471.95 60 471.95V470.05ZM50.05 480.054C50.05 481.791 50.6095 483.66 51.3941 485.445C52.1839 487.242 53.2325 489.022 54.2785 490.597C56.3707 493.747 58.5034 496.155 58.6883 496.362L60.1058 495.097C59.9477 494.92 57.8819 492.588 55.8613 489.546C54.851 488.024 53.8646 486.344 53.1335 484.681C52.3973 483.006 51.95 481.415 51.95 480.054H50.05ZM58.6883 496.362C59.3885 497.147 60.613 497.145 61.3118 496.362L59.8942 495.097C59.95 495.035 60.0497 495.034 60.1058 495.097L58.6883 496.362ZM61.3117 496.362C61.4966 496.155 63.6293 493.747 65.7215 490.597C66.7675 489.022 67.8161 487.242 68.6059 485.445C69.3905 483.66 69.95 481.791 69.95 480.054H68.05C68.05 481.415 67.6027 483.006 66.8665 484.681C66.1354 486.344 65.149 488.024 64.1387 489.546C62.1181 492.588 60.0523 494.92 59.8942 495.097L61.3117 496.362ZM69.95 480.054C69.9499 474.542 65.4926 470.05 60 470.05V471.95C64.4325 471.95 68.0499 475.581 68.05 480.054L69.95 480.054ZM60 483.659C58.0332 483.659 56.4219 482.047 56.4219 480.054H54.5219C54.5219 483.085 56.9731 485.559 60 485.559V483.659ZM56.4219 480.054C56.4219 478.062 58.0332 476.449 60 476.449V474.549C56.9732 474.549 54.5219 477.023 54.5219 480.054H56.4219ZM60 476.449C61.9667 476.449 63.578 478.062 63.578 480.054H65.478C65.478 477.023 63.0268 474.549 60 474.549V476.449ZM63.578 480.054C63.578 482.047 61.9667 483.659 60 483.659V485.559C63.0268 485.559 65.478 483.085 65.478 480.054H63.578Z" fill="white"/>
<path d="M66.35 569.2C64.8367 569.2 63.6 570.437 63.6 571.95C63.6 573.463 64.8367 574.7 66.35 574.7C67.8634 574.7 69.1 573.463 69.1 571.95C69.1 570.437 67.8634 569.2 66.35 569.2Z" stroke="white" stroke-width="1.4"/>
<path d="M56.3895 567.649C54.2693 567.649 52.5395 569.379 52.5395 571.499C52.5395 573.619 54.2693 575.349 56.3895 575.349C58.5097 575.349 60.2395 573.619 60.2395 571.499C60.2395 569.379 58.5097 567.649 56.3895 567.649Z" stroke="white" stroke-width="1.6"/>
<path d="M70.2942 578.436C71.4819 579.262 72.1275 580.332 72.1275 581.418V584.466C72.1275 585.018 71.6798 585.466 71.1275 585.466H58.9275V581.418C58.9275 580.332 59.5732 579.262 60.7609 578.436C61.9485 577.61 63.6414 577.081 65.5275 577.081C67.4136 577.081 69.1065 577.61 70.2942 578.436Z" stroke="white" stroke-width="1.4"/>
<path d="M63.2467 579.638C64.9443 580.635 65.8672 581.928 65.8672 583.241V587.132C65.8672 587.685 65.4195 588.132 64.8672 588.132H48C47.4477 588.132 47 587.685 47 587.132V583.241C47 581.928 47.9228 580.635 49.6204 579.638C51.318 578.64 53.7377 578 56.4336 578C59.1294 578 61.5491 578.64 63.2467 579.638Z" fill="#7512FF" stroke="white" stroke-width="1.6"/>
<path fill-rule="evenodd" clip-rule="evenodd" d="M63.1073 578.641C63.1073 578.641 62.4904 578.373 61.925 578.103C61.5245 577.912 60.5013 577.696 60.5013 577.696L62.4714 576.697L64.8289 578L63.1073 578.641Z" fill="#6F5CEA"/>
<rect x="66.667" y="584.436" width="1.39757" height="2" fill="#6F5CEA"/>
<mask id="path-18-inside-3_0_351" fill="white">
<path fill-rule="evenodd" clip-rule="evenodd" d="M68.5 661.5H66.5V681.5H68.5V661.5ZM65.9881 660C65.4424 660 65 660.442 65 660.988V682.012C65 682.558 65.4424 683 65.9881 683H69.0119C69.5576 683 70 682.558 70 682.012V660.988C70 660.442 69.5576 660 69.0119 660H65.9881ZM61.0119 665.5H57.9881C57.7185 665.5 57.5 665.719 57.5 665.988V682.012C57.5 682.281 57.7185 682.5 57.9881 682.5H61.0119C61.2815 682.5 61.5 682.281 61.5 682.012V665.988C61.5 665.719 61.2815 665.5 61.0119 665.5ZM57.9881 665C57.4424 665 57 665.442 57 665.988V682.012C57 682.558 57.4424 683 57.9881 683H61.0119C61.5576 683 62 682.558 62 682.012V665.988C62 665.442 61.5576 665 61.0119 665H57.9881ZM49.9881 671.5H53.0119C53.2815 671.5 53.5 671.719 53.5 671.988V682.012C53.5 682.281 53.2815 682.5 53.0119 682.5H49.9881C49.7185 682.5 49.5 682.281 49.5 682.012V671.988C49.5 671.719 49.7185 671.5 49.9881 671.5ZM49 671.988C49 671.442 49.4424 671 49.9881 671H53.0119C53.5576 671 54 671.442 54 671.988V682.012C54 682.558 53.5576 683 53.0119 683H49.9881C49.4424 683 49 682.558 49 682.012V671.988Z"/>
</mask>
<path d="M66.5 661.5V659.8H64.8V661.5H66.5ZM68.5 661.5H70.2V659.8H68.5V661.5ZM66.5 681.5H64.8V683.2H66.5V681.5ZM68.5 681.5V683.2H70.2V681.5H68.5ZM66.5 663.2H68.5V659.8H66.5V663.2ZM68.2 681.5V661.5H64.8V681.5H68.2ZM68.5 679.8H66.5V683.2H68.5V679.8ZM66.8 661.5V681.5H70.2V661.5H66.8ZM66.7 660.988C66.7 661.381 66.3813 661.7 65.9881 661.7V658.3C64.5035 658.3 63.3 659.504 63.3 660.988H66.7ZM66.7 682.012V660.988H63.3V682.012H66.7ZM65.9881 681.3C66.3813 681.3 66.7 681.619 66.7 682.012H63.3C63.3 683.496 64.5035 684.7 65.9881 684.7V681.3ZM69.0119 681.3H65.9881V684.7H69.0119V681.3ZM68.3 682.012C68.3 681.619 68.6187 681.3 69.0119 681.3V684.7C70.4965 684.7 71.7 683.496 71.7 682.012H68.3ZM68.3 660.988V682.012H71.7V660.988H68.3ZM69.0119 661.7C68.6187 661.7 68.3 661.381 68.3 660.988H71.7C71.7 659.504 70.4965 658.3 69.0119 658.3V661.7ZM65.9881 661.7H69.0119V658.3H65.9881V661.7ZM57.9881 667.2H61.0119V663.8H57.9881V667.2ZM59.2 665.988C59.2 666.657 58.6574 667.2 57.9881 667.2V663.8C56.7797 663.8 55.8 664.78 55.8 665.988H59.2ZM59.2 682.012V665.988H55.8V682.012H59.2ZM57.9881 680.8C58.6574 680.8 59.2 681.343 59.2 682.012H55.8C55.8 683.22 56.7797 684.2 57.9881 684.2V680.8ZM61.0119 680.8H57.9881V684.2H61.0119V680.8ZM59.8 682.012C59.8 681.343 60.3426 680.8 61.0119 680.8V684.2C62.2203 684.2 63.2 683.22 63.2 682.012H59.8ZM59.8 665.988V682.012H63.2V665.988H59.8ZM61.0119 667.2C60.3426 667.2 59.8 666.657 59.8 665.988H63.2C63.2 664.78 62.2203 663.8 61.0119 663.8V667.2ZM58.7 665.988C58.7 666.381 58.3813 666.7 57.9881 666.7V663.3C56.5035 663.3 55.3 664.504 55.3 665.988H58.7ZM58.7 682.012V665.988H55.3V682.012H58.7ZM57.9881 681.3C58.3813 681.3 58.7 681.619 58.7 682.012H55.3C55.3 683.496 56.5035 684.7 57.9881 684.7V681.3ZM61.0119 681.3H57.9881V684.7H61.0119V681.3ZM60.3 682.012C60.3 681.619 60.6187 681.3 61.0119 681.3V684.7C62.4965 684.7 63.7 683.496 63.7 682.012H60.3ZM60.3 665.988V682.012H63.7V665.988H60.3ZM61.0119 666.7C60.6187 666.7 60.3 666.381 60.3 665.988H63.7C63.7 664.504 62.4965 663.3 61.0119 663.3V666.7ZM57.9881 666.7H61.0119V663.3H57.9881V666.7ZM53.0119 669.8H49.9881V673.2H53.0119V669.8ZM55.2 671.988C55.2 670.78 54.2203 669.8 53.0119 669.8V673.2C52.3426 673.2 51.8 672.657 51.8 671.988H55.2ZM55.2 682.012V671.988H51.8V682.012H55.2ZM53.0119 684.2C54.2203 684.2 55.2 683.22 55.2 682.012H51.8C51.8 681.343 52.3426 680.8 53.0119 680.8V684.2ZM49.9881 684.2H53.0119V680.8H49.9881V684.2ZM47.8 682.012C47.8 683.22 48.7797 684.2 49.9881 684.2V680.8C50.6574 680.8 51.2 681.343 51.2 682.012H47.8ZM47.8 671.988V682.012H51.2V671.988H47.8ZM49.9881 669.8C48.7797 669.8 47.8 670.78 47.8 671.988H51.2C51.2 672.657 50.6574 673.2 49.9881 673.2V669.8ZM49.9881 669.3C48.5035 669.3 47.3 670.504 47.3 671.988H50.7C50.7 672.381 50.3813 672.7 49.9881 672.7V669.3ZM53.0119 669.3H49.9881V672.7H53.0119V669.3ZM55.7 671.988C55.7 670.504 54.4965 669.3 53.0119 669.3V672.7C52.6187 672.7 52.3 672.381 52.3 671.988H55.7ZM55.7 682.012V671.988H52.3V682.012H55.7ZM53.0119 684.7C54.4965 684.7 55.7 683.496 55.7 682.012H52.3C52.3 681.619 52.6187 681.3 53.0119 681.3V684.7ZM49.9881 684.7H53.0119V681.3H49.9881V684.7ZM47.3 682.012C47.3 683.496 48.5035 684.7 49.9881 684.7V681.3C50.3813 681.3 50.7 681.619 50.7 682.012H47.3ZM47.3 671.988V682.012H50.7V671.988H47.3Z" fill="white" mask="url(#path-18-inside-3_0_351)"/>
<path d="M72.0255 921.051C72.0306 921.046 72.0306 921.046 72.0357 921.041C72.051 921.02 72.0663 921.005 72.0765 920.985C72.0816 920.98 72.0816 920.974 72.0867 920.969C72.0969 920.949 72.1122 920.929 72.1224 920.908C72.1224 920.903 72.1276 920.898 72.1276 920.898C72.1378 920.878 72.148 920.857 72.1582 920.832C72.1582 920.827 72.1582 920.827 72.1633 920.821C72.1735 920.801 72.1786 920.776 72.1888 920.75C72.1888 920.745 72.1888 920.74 72.1939 920.74C72.199 920.714 72.2092 920.694 72.2092 920.668C72.2092 920.658 72.2092 920.653 72.2143 920.643C72.2194 920.622 72.2194 920.602 72.2245 920.582C72.2296 920.551 72.2296 920.526 72.2296 920.495C72.2296 920.464 72.2296 920.439 72.2245 920.408C72.2245 920.388 72.2194 920.367 72.2143 920.347C72.2143 920.337 72.2143 920.332 72.2092 920.321C72.2041 920.296 72.199 920.276 72.1939 920.25C72.1939 920.245 72.1939 920.24 72.1888 920.24C72.1837 920.214 72.1735 920.194 72.1633 920.168C72.1633 920.163 72.1633 920.163 72.1582 920.158C72.148 920.138 72.1378 920.112 72.1276 920.092C72.1276 920.087 72.1224 920.082 72.1224 920.082C72.1122 920.061 72.102 920.041 72.0867 920.02C72.0816 920.015 72.0816 920.01 72.0765 920.005C72.0612 919.985 72.051 919.964 72.0357 919.949C72.0306 919.944 72.0306 919.944 72.0255 919.939C72.0051 919.918 71.9898 919.893 71.9643 919.872L66.9184 914.832C66.5765 914.49 66.0204 914.49 65.6786 914.832C65.3367 915.173 65.3367 915.73 65.6786 916.071L69.2296 919.622H55.1122C54.6276 919.622 54.2347 920.015 54.2347 920.495C54.2347 920.98 54.6276 921.372 55.1122 921.372H69.2347L65.7092 924.898C65.3673 925.24 65.3673 925.796 65.7092 926.138C65.8776 926.306 66.102 926.393 66.3265 926.393C66.551 926.393 66.7755 926.306 66.9439 926.138L71.9592 921.122C71.9847 921.092 72.0051 921.071 72.0255 921.051Z" fill="white" stroke="white" stroke-width="0.3"/>
<path d="M51.7806 909.75H58.3112C58.7959 909.75 59.1888 909.357 59.1888 908.878C59.1888 908.393 58.7959 908 58.3112 908H51.7806C49.1633 908 47.0306 910.133 47.0306 912.75V928.245C47.0306 930.862 49.1633 932.995 51.7806 932.995H58.2041C58.6888 932.995 59.0816 932.602 59.0816 932.122C59.0816 931.638 58.6888 931.245 58.2041 931.245H51.7806C50.1275 931.245 48.7806 929.898 48.7806 928.245V912.75C48.7857 911.092 50.1275 909.75 51.7806 909.75Z" fill="white" stroke="white" stroke-width="0.3"/>
</svg>
